<svg id="kity_svg_6" xmlns="http://www.w3.org/2000/svg" xmlns:xlink="http://www.w3.org/1999/xlink" version="1.1" width="1736" height="387" style="background: rgb(251, 251, 251); visibility: visible;" viewBox="0 0 1736 387"><defs id="kity_defs_7"><linearGradient id="kity_linearGradient_17" x1="0" y1="0" x2="0" y2="1"><stop id="kity_stop_18" offset="0" stop-color="rgb(255, 255, 255)"></stop><stop id="kity_stop_19" offset="1" stop-color="rgb(204, 204, 204)"></stop></linearGradient><marker id="kity_marker_2" orient="auto" refX="6" refY="0" viewBox="-7 -7 14 14" markerWidth="7" markerHeight="7" markerUnits="userSpaceOnUse"><path id="kity_path_3" fill="rgb(115, 161, 191)" stroke="none" d="M6,0A6,6,0,1,1,-6,0A6,6,0,1,1,6,0"></path></marker></defs><g id="kity_g_8"><g id="minder1" text-rendering="optimize-speed"><g id="minder_connect_group1"><path id="kity_path_31" fill="none" stroke="rgb(115, 161, 191)" stroke-width="1" d="M923.5,179.5A178,70,0,0,1,1101.5,109.5"></path><path id="kity_path_39" fill="none" stroke="rgb(115, 161, 191)" stroke-width="1" d="M1215.5,109.5C1230.5,109.5,1230.5,71.5,1245.5,71.5L1356.5,71.5"></path><path id="kity_path_47" fill="none" stroke="rgb(115, 161, 191)" stroke-width="1" d="M1215.5,109.5C1230.5,109.5,1230.5,123.5,1245.5,123.5L1392.5,123.5"></path><path id="kity_path_55" fill="none" stroke="rgb(115, 161, 191)" stroke-width="1" d="M1392.5,123.5C1407.5,123.5,1407.5,123.5,1422.5,123.5L1713.5,123.5"></path><path id="kity_path_63" fill="none" stroke="rgb(115, 161, 191)" stroke-width="1" d="M1215.5,109.5C1230.5,109.5,1230.5,175.5,1245.5,175.5L1601.5,175.5"></path><path id="kity_path_71" fill="none" stroke="rgb(115, 161, 191)" stroke-width="1" d="M923.5,179.5A178,70,0,0,0,1101.5,249.5"></path><path id="kity_path_79" fill="none" stroke="rgb(115, 161, 191)" stroke-width="1" d="M1206.5,249.5C1221.5,249.5,1221.5,237.5,1236.5,237.5L1402.5,237.5"></path><path id="kity_path_87" fill="none" stroke="rgb(115, 161, 191)" stroke-width="1" d="M1206.5,249.5C1221.5,249.5,1221.5,289.5,1236.5,289.5L1402.5,289.5"></path><path id="kity_path_95" fill="none" stroke="rgb(115, 161, 191)" stroke-width="1" d="M1402.5,289.5C1417.5,289.5,1417.5,289.5,1432.5,289.5L1716.5,289.5"></path><path id="kity_path_103" fill="none" stroke="rgb(115, 161, 191)" stroke-width="1" d="M923.5,179.5A178,96,0,0,0,745.5,83.5"></path><path id="kity_path_111" fill="none" stroke="rgb(115, 161, 191)" stroke-width="1" d="M640.5,83.5C625.5,83.5,625.5,45.5,610.5,45.5L486.5,45.5"></path><path id="kity_path_119" fill="none" stroke="rgb(115, 161, 191)" stroke-width="1" d="M640.5,83.5C625.5,83.5,625.5,97.5,610.5,97.5L494.5,97.5"></path><path id="kity_path_127" fill="none" stroke="rgb(115, 161, 191)" stroke-width="1" d="M640.5,83.5C625.5,83.5,625.5,149.5,610.5,149.5L422.5,149.5"></path><path id="kity_path_135" fill="none" stroke="rgb(115, 161, 191)" stroke-width="1" d="M923.5,179.5A178,96,0,0,1,745.5,275.5"></path><path id="kity_path_143" fill="none" stroke="rgb(115, 161, 191)" stroke-width="1" d="M599.5,275.5C584.5,275.5,584.5,211.5,569.5,211.5L465.5,211.5"></path><path id="kity_path_151" fill="none" stroke="rgb(115, 161, 191)" stroke-width="1" d="M599.5,275.5C584.5,275.5,584.5,263.5,569.5,263.5L478.5,263.5"></path><path id="kity_path_159" fill="none" stroke="rgb(115, 161, 191)" stroke-width="1" d="M599.5,275.5C584.5,275.5,584.5,315.5,569.5,315.5L338.5,315.5"></path><path id="kity_path_167" fill="none" stroke="rgb(115, 161, 191)" stroke-width="1" d="M599.5,275.5C584.5,275.5,584.5,367.5,569.5,367.5L20.5,367.5"></path></g><g id="minder_node1"><path id="node_outline1" fill="rgb(115, 161, 191)" stroke="rgb(115, 161, 191)" d="M868.5,159.5h110a5,5,0,0,1,5,5v30a5,5,0,0,1,-5,5h-110a5,5,0,0,1,-5,-5v-30a5,5,0,0,1,5,-5z" stroke-width="3"></path><g id="node_text1" fill="white"><text id="kity_text_22" text-rendering="inherit" font-size="16" dy=".8em" y="171.5" x="887.5">KVM 原理</text></g></g><g id="kity_g_12"><path id="kity_path_13" fill="none" stroke="none" d="M887.5,179.5h0v0h0z"></path></g><g id="kity_g_14"><path id="kity_path_15" fill="none" stroke="none" d="M887.5,179.5h0v0h0z"></path><path id="kity_path_16" fill="none" stroke="none"></path></g><g id="minder_node2"><g id="node_expander1" style="cursor: pointer;"><path id="kity_path_36" fill="white" stroke="gray" d="M1102.5,109.5A6,6,0,1,1,1090.5,109.5A6,6,0,1,1,1102.5,109.5"></path><path id="kity_path_37" fill="none" stroke="gray" d="M1092,109.5L1101,109.5"></path></g><path id="node_outline2" fill="rgb(238, 243, 246)" stroke="rgb(115, 161, 191)" d="M1106.5,96.5h106a3,3,0,0,1,3,3v20a3,3,0,0,1,-3,3h-106a3,3,0,0,1,-3,-3v-20a3,3,0,0,1,3,-3z" stroke-width="1"></path><g id="node_text2" fill="black"><text id="kity_text_33" text-rendering="inherit" font-size="14" dy=".8em" y="102.5" x="1123.5">虚拟化模型</text></g></g><g id="minder_node3"><g id="node_expander2" style="cursor: pointer;" display="none"><path id="kity_path_44" fill="white" stroke="gray" d="M1255.5,57.5A6,6,0,1,1,1243.5,57.5A6,6,0,1,1,1255.5,57.5"></path><path id="kity_path_45" fill="none" stroke="gray"></path></g><path id="node_outline3" fill="none" stroke="none" d="M1260.5,46.5h91a5,5,0,0,1,5,5v12a5,5,0,0,1,-5,5h-91a5,5,0,0,1,-5,-5v-12a5,5,0,0,1,5,-5z" stroke-width="3"></path><g id="node_text3" fill="black"><text id="kity_text_41" text-rendering="inherit" font-size="12" dy=".8em" y="51.5" x="1265.5">底层: 物理系统</text></g></g><g id="minder_node4"><g id="node_expander3" style="cursor: pointer;"><path id="kity_path_52" fill="white" stroke="gray" d="M1255.5,109.5A6,6,0,1,1,1243.5,109.5A6,6,0,1,1,1255.5,109.5"></path><path id="kity_path_53" fill="none" stroke="gray" d="M1245,109.5L1254,109.5"></path></g><path id="node_outline4" fill="none" stroke="none" d="M1260.5,98.5h127a5,5,0,0,1,5,5v12a5,5,0,0,1,-5,5h-127a5,5,0,0,1,-5,-5v-12a5,5,0,0,1,5,-5z" stroke-width="3"></path><g id="node_text4" fill="black"><text id="kity_text_49" text-rendering="inherit" font-size="12" dy=".8em" y="103.5" x="1265.5">第二层: 虚拟机监控器</text></g></g><g id="minder_node5"><g id="node_expander4" style="cursor: pointer;" display="none"><path id="kity_path_60" fill="white" stroke="gray" d="M1432.5,109.5A6,6,0,1,1,1420.5,109.5A6,6,0,1,1,1432.5,109.5"></path><path id="kity_path_61" fill="none" stroke="gray"></path></g><path id="node_outline5" fill="none" stroke="none" d="M1437.5,98.5h271a5,5,0,0,1,5,5v12a5,5,0,0,1,-5,5h-271a5,5,0,0,1,-5,-5v-12a5,5,0,0,1,5,-5z" stroke-width="3"></path><g id="node_text5" fill="black"><text id="kity_text_57" text-rendering="inherit" font-size="12" dy=".8em" y="103.5" x="1442.5">管理物理系统, 为虚拟机提供对应的虚拟硬件平台</text></g></g><g id="minder_node6"><g id="node_expander5" style="cursor: pointer;" display="none"><path id="kity_path_68" fill="white" stroke="gray" d="M1255.5,161.5A6,6,0,1,1,1243.5,161.5A6,6,0,1,1,1255.5,161.5"></path><path id="kity_path_69" fill="none" stroke="gray"></path></g><path id="node_outline6" fill="none" stroke="none" d="M1260.5,150.5h336a5,5,0,0,1,5,5v12a5,5,0,0,1,-5,5h-336a5,5,0,0,1,-5,-5v-12a5,5,0,0,1,5,-5z" stroke-width="3"></path><g id="node_text6" fill="black"><text id="kity_text_65" text-rendering="inherit" font-size="12" dy=".8em" y="155.5" x="1265.5">虚拟化: 处理器, 内存, 输入输出, 芯片组, 网卡, 存储设备, GPU</text></g></g><g id="minder_node7"><g id="node_expander6" style="cursor: pointer;"><path id="kity_path_76" fill="white" stroke="gray" d="M1102.5,249.5A6,6,0,1,1,1090.5,249.5A6,6,0,1,1,1102.5,249.5"></path><path id="kity_path_77" fill="none" stroke="gray" d="M1092,249.5L1101,249.5"></path></g><path id="node_outline7" fill="rgb(238, 243, 246)" stroke="rgb(115, 161, 191)" d="M1106.5,236.5h97a3,3,0,0,1,3,3v20a3,3,0,0,1,-3,3h-97a3,3,0,0,1,-3,-3v-20a3,3,0,0,1,3,-3z" stroke-width="1"></path><g id="node_text7" fill="black"><text id="kity_text_73" text-rendering="inherit" font-size="14" dy=".8em" y="242.5" x="1123.5">KVM 架构</text></g></g><g id="minder_node8"><g id="node_expander7" style="cursor: pointer;" display="none"><path id="kity_path_84" fill="white" stroke="gray" d="M1246.5,223.5A6,6,0,1,1,1234.5,223.5A6,6,0,1,1,1246.5,223.5"></path><path id="kity_path_85" fill="none" stroke="gray"></path></g><path id="node_outline8" fill="none" stroke="none" d="M1251.5,212.5h146a5,5,0,0,1,5,5v12a5,5,0,0,1,-5,5h-146a5,5,0,0,1,-5,-5v-12a5,5,0,0,1,5,-5z" stroke-width="3"></path><g id="node_text8" fill="black"><text id="kity_text_81" text-rendering="inherit" font-size="12" dy=".8em" y="217.5" x="1256.5">一: 虚拟机监控程序 + OS</text></g></g><g id="minder_node9"><g id="node_expander8" style="cursor: pointer;"><path id="kity_path_92" fill="white" stroke="gray" d="M1246.5,275.5A6,6,0,1,1,1234.5,275.5A6,6,0,1,1,1246.5,275.5"></path><path id="kity_path_93" fill="none" stroke="gray" d="M1236,275.5L1245,275.5"></path></g><path id="node_outline9" fill="none" stroke="none" d="M1251.5,264.5h146a5,5,0,0,1,5,5v12a5,5,0,0,1,-5,5h-146a5,5,0,0,1,-5,-5v-12a5,5,0,0,1,5,-5z" stroke-width="3"></path><g id="node_text9" fill="black"><text id="kity_text_89" text-rendering="inherit" font-size="12" dy=".8em" y="269.5" x="1256.5">二: OS + 虚拟机监控程序</text></g></g><g id="minder_node10"><g id="node_expander9" style="cursor: pointer;" display="none"><path id="kity_path_100" fill="white" stroke="gray" d="M1442.5,275.5A6,6,0,1,1,1430.5,275.5A6,6,0,1,1,1442.5,275.5"></path><path id="kity_path_101" fill="none" stroke="gray"></path></g><path id="node_outline10" fill="none" stroke="none" d="M1447.5,264.5h264a5,5,0,0,1,5,5v12a5,5,0,0,1,-5,5h-264a5,5,0,0,1,-5,-5v-12a5,5,0,0,1,5,-5z" stroke-width="3"></path><g id="node_text10" fill="black"><text id="kity_text_97" text-rendering="inherit" font-size="12" dy=".8em" y="269.5" x="1452.5">虚拟机监控程序充分利用 OS 来实现管理和调度</text></g></g><g id="minder_node11"><g id="node_expander10" style="cursor: pointer;"><path id="kity_path_108" fill="white" stroke="gray" d="M756.5,83.5A6,6,0,1,1,744.5,83.5A6,6,0,1,1,756.5,83.5"></path><path id="kity_path_109" fill="none" stroke="gray" d="M746,83.5L755,83.5"></path></g><path id="node_outline11" fill="rgb(238, 243, 246)" stroke="rgb(115, 161, 191)" d="M643.5,70.5h97a3,3,0,0,1,3,3v20a3,3,0,0,1,-3,3h-97a3,3,0,0,1,-3,-3v-20a3,3,0,0,1,3,-3z" stroke-width="1"></path><g id="node_text11" fill="black"><text id="kity_text_105" text-rendering="inherit" font-size="14" dy=".8em" y="76.5" x="660.5">KVM 模块</text></g></g><g id="minder_node12"><g id="node_expander11" style="cursor: pointer;" display="none"><path id="kity_path_116" fill="white" stroke="gray" d="M612.5,31.5A6,6,0,1,1,600.5,31.5A6,6,0,1,1,612.5,31.5"></path><path id="kity_path_117" fill="none" stroke="gray"></path></g><path id="node_outline12" fill="none" stroke="none" d="M491.5,20.5h104a5,5,0,0,1,5,5v12a5,5,0,0,1,-5,5h-104a5,5,0,0,1,-5,-5v-12a5,5,0,0,1,5,-5z" stroke-width="3"></path><g id="node_text12" fill="black"><text id="kity_text_113" text-rendering="inherit" font-size="12" dy=".8em" y="25.5" x="496.5">初始化 CPU 硬件</text></g></g><g id="minder_node13"><g id="node_expander12" style="cursor: pointer;" display="none"><path id="kity_path_124" fill="white" stroke="gray" d="M612.5,83.5A6,6,0,1,1,600.5,83.5A6,6,0,1,1,612.5,83.5"></path><path id="kity_path_125" fill="none" stroke="gray"></path></g><path id="node_outline13" fill="none" stroke="none" d="M499.5,72.5h96a5,5,0,0,1,5,5v12a5,5,0,0,1,-5,5h-96a5,5,0,0,1,-5,-5v-12a5,5,0,0,1,5,-5z" stroke-width="3"></path><g id="node_text13" fill="black"><text id="kity_text_121" text-rendering="inherit" font-size="12" dy=".8em" y="77.5" x="504.5">打开虚拟化模式</text></g></g><g id="minder_node14"><g id="node_expander13" style="cursor: pointer;" display="none"><path id="kity_path_132" fill="white" stroke="gray" d="M612.5,135.5A6,6,0,1,1,600.5,135.5A6,6,0,1,1,612.5,135.5"></path><path id="kity_path_133" fill="none" stroke="gray"></path></g><path id="node_outline14" fill="none" stroke="none" d="M427.5,124.5h168a5,5,0,0,1,5,5v12a5,5,0,0,1,-5,5h-168a5,5,0,0,1,-5,-5v-12a5,5,0,0,1,5,-5z" stroke-width="3"></path><g id="node_text14" fill="black"><text id="kity_text_129" text-rendering="inherit" font-size="12" dy=".8em" y="129.5" x="432.5">将虚拟机运行在虚拟机模式下</text></g></g><g id="minder_node15"><g id="node_expander14" style="cursor: pointer;"><path id="kity_path_140" fill="white" stroke="gray" d="M756.5,275.5A6,6,0,1,1,744.5,275.5A6,6,0,1,1,756.5,275.5"></path><path id="kity_path_141" fill="none" stroke="gray" d="M746,275.5L755,275.5"></path></g><path id="node_outline15" fill="rgb(238, 243, 246)" stroke="rgb(115, 161, 191)" d="M602.5,262.5h138a3,3,0,0,1,3,3v20a3,3,0,0,1,-3,3h-138a3,3,0,0,1,-3,-3v-20a3,3,0,0,1,3,-3z" stroke-width="1"></path><g id="node_text15" fill="black"><text id="kity_text_137" text-rendering="inherit" font-size="14" dy=".8em" y="268.5" x="619.5">QEMU 设备模型</text></g></g><g id="minder_node16"><g id="node_expander15" style="cursor: pointer;" display="none"><path id="kity_path_148" fill="white" stroke="gray" d="M571.5,197.5A6,6,0,1,1,559.5,197.5A6,6,0,1,1,571.5,197.5"></path><path id="kity_path_149" fill="none" stroke="gray"></path></g><path id="node_outline16" fill="none" stroke="none" d="M470.5,186.5h84a5,5,0,0,1,5,5v12a5,5,0,0,1,-5,5h-84a5,5,0,0,1,-5,-5v-12a5,5,0,0,1,5,-5z" stroke-width="3"></path><g id="node_text16" fill="black"><text id="kity_text_145" text-rendering="inherit" font-size="12" dy=".8em" y="191.5" x="475.5">处理器虚拟化</text></g></g><g id="minder_node17"><g id="node_expander16" style="cursor: pointer;" display="none"><path id="kity_path_156" fill="white" stroke="gray" d="M571.5,249.5A6,6,0,1,1,559.5,249.5A6,6,0,1,1,571.5,249.5"></path><path id="kity_path_157" fill="none" stroke="gray"></path></g><path id="node_outline17" fill="none" stroke="none" d="M483.5,238.5h71a5,5,0,0,1,5,5v12a5,5,0,0,1,-5,5h-71a5,5,0,0,1,-5,-5v-12a5,5,0,0,1,5,-5z" stroke-width="3"></path><g id="node_text17" fill="black"><text id="kity_text_153" text-rendering="inherit" font-size="12" dy=".8em" y="243.5" x="488.5">内存虚拟化</text></g></g><g id="minder_node18"><g id="node_expander17" style="cursor: pointer;" display="none"><path id="kity_path_164" fill="white" stroke="gray" d="M571.5,301.5A6,6,0,1,1,559.5,301.5A6,6,0,1,1,571.5,301.5"></path><path id="kity_path_165" fill="none" stroke="gray"></path></g><path id="node_outline18" fill="none" stroke="none" d="M343.5,290.5h211a5,5,0,0,1,5,5v12a5,5,0,0,1,-5,5h-211a5,5,0,0,1,-5,-5v-12a5,5,0,0,1,5,-5z" stroke-width="3"></path><g id="node_text18" fill="black"><text id="kity_text_161" text-rendering="inherit" font-size="12" dy=".8em" y="295.5" x="348.5">网卡, 显卡, 存储控制器, 硬盘等虚拟化</text></g></g><g id="minder_node19"><g id="node_expander18" style="cursor: pointer;" display="none"><path id="kity_path_172" fill="white" stroke="gray" d="M571.5,353.5A6,6,0,1,1,559.5,353.5A6,6,0,1,1,571.5,353.5"></path><path id="kity_path_173" fill="none" stroke="gray"></path></g><path id="node_outline19" fill="none" stroke="rgb(57, 80, 96)" d="M25.5,342.5h529a5,5,0,0,1,5,5v12a5,5,0,0,1,-5,5h-529a5,5,0,0,1,-5,-5v-12a5,5,0,0,1,5,-5z" stroke-width="3"></path><g id="node_text19" fill="black"><text id="kity_text_169" text-rendering="inherit" font-size="12" dy=".8em" y="347.5" x="30.5">KVM 与 QEMU 的关系: KVM 使用 QEMU 的代码实现虚拟化; QEMU 使用 KVM 来加速硬件虚拟化</text></g></g></g></g></svg>