<?xml version="1.0" encoding="UTF-8"?><!DOCTYPE svg PUBLIC "-//W3C//DTD SVG 1.1//EN" "http://www.w3.org/Graphics/SVG/1.1/DTD/svg11.dtd"><svg version="1.1" xmlns="http://www.w3.org/2000/svg" width="160" height="160" viewBox="0 0 160 160"><g transform="scale(1,1) rotate(0,80,80)" fill-opacity="1">
	<g><circle cx="80" cy="80" r="80" fill="#FFFFFF" display="none"/></g>
	<g>
		<g id="ringback" display="inline"><path fill="#FF0100" d="M80,0C35.817,0,0,35.817,0,80c0,44.184,35.817,80,80,80c44.184,0,80-35.816,80-80C160,35.817,124.184,0,80,0z M80,155.5c-41.697,0-75.5-33.804-75.5-75.5C4.5,38.303,38.303,4.5,80,4.5c41.696,0,75.5,33.803,75.5,75.5C155.5,121.696,121.696,155.5,80,155.5z"/></g>

		<g id="ringfore" display="none" transform="rotate(123,80,80)">
			<path fill="#FF0100" d="M39.5,16.2v-5.3c-5.7,3.4-11.1,7.6-16,12.5c-5,5-9.1,10.3-12.5,16h5.3c2.9-4.5,6.3-8.8,10.3-12.8S34.9,19.2,39.5,16.2z"/>
			<path fill="#FF0100" d="M15.6,40.4h-5.2c-2.8,5-5.1,10.3-6.7,15.8l3.2,5.5C8.7,54.1,11.6,47,15.6,40.4z"/>
			<path fill="#FF0100" d="M97.4,2C91.9,0.8,86.1,0.1,80,0C65.2,0.3,52.1,3.8,40.5,10.4v5.2C52,8.5,65.1,4.8,80,4.5c7.3,0.1,14.1,1.1,20.5,2.9L97.4,2z"/>
			<path fill="#FF0100" d="M129.3,22.8l2.3-3.9c-9.5-8.2-20.5-13.7-32.8-16.6l3.1,5.5C112.1,10.7,121.3,15.7,129.3,22.8z"/>
			<path fill="#FF0100" d="M132.3,19.5l-2.2,3.9c1.1,1,2.2,2.1,3.3,3.2c9,9,15.3,19.4,18.8,31.4l5.5,3.1c-3.4-14.5-10.5-27-21.1-37.7C135.2,22.1,133.8,20.8,132.3,19.5z"/>
			<path fill="#FF0100" d="M158,62.4l-5.4-3.1c1.8,6.5,2.8,13.4,2.9,20.7c-0.1,6-0.8,11.7-2,17.1l3.2,5.6c2-7.1,3.1-14.7,3.3-22.7C159.9,73.8,159.2,68,158,62.4z"/>
			<path fill="#FF0100" d="M156.3,104l-3.1-5.5c-3.4,13.4-9.9,25-19.8,34.9c-4,4-8.3,7.4-12.9,10.4v5.2c5.8-3.4,11.1-7.5,16.1-12.5C146,127.2,152.6,116.3,156.3,104z"/>
			<path fill="#FF0100" d="M119.5,149.6v-5.2c-11.4,7-24.6,10.7-39.5,11.1c-7.3-0.2-14.2-1.2-20.7-3l3.1,5.4c5.6,1.2,11.5,1.9,17.6,2.1C94.8,159.6,108,156.2,119.5,149.6z"/>
			<path fill="#FF0100" d="M6.5,63.1l-3.2-5.6C1.3,64.5,0.2,72,0,80c0.4,14.7,3.8,27.9,10.4,39.4h5.2C8.6,108,4.9,94.9,4.5,80C4.7,74.1,5.3,68.5,6.5,63.1z"/>
			<path fill="#FF0100" d="M16.2,120.4H11c3.3,5.8,7.5,11.2,12.5,16.1c4.9,5,10.2,9.1,16,12.5l-0.1-5.3c-4.5-2.9-8.8-6.3-12.8-10.3C22.6,129.3,19.1,125,16.2,120.4z"/>
			<path fill="#FF0100" d="M40.4,144.4l0.1,5.2c6.3,3.6,13.2,6.3,20.6,8l-3.2-5.5C51.7,150.3,45.9,147.7,40.4,144.4z"/>
		</g>

		<g id="centersign" transform="translate(0,0) scale(1,1)">
			<g id="signstar" display="inline">
				<polygon fill="#FF0100" points="79.5,58.5 84.633,73.722 100.563,73.722 87.818,83.277 92.42,98.5 79.5,89.475 66.58,98.5 71.182,83.277 58.438,73.722 74.367,73.722"/>
			</g>
			<g id="signparty" display="none"><path fill="#FF0100" d="M80.448,58.475c10.11,3.89,16.197,16.188,10.938,26.069L78.592,71.51l4.953-4.941l-3.097-3.153c-1.651,1.683-4.333,1.999-6.19,1.261l-9.699,9.985l5.572,5.571l3.61-3.784l12.792,13.035c-6.292,3.574-14.958,2.418-21.354-4.311l-2.992,3.156c0.826,1.258,1.65,2.414,2.579,3.466c0,0.104-0.309,0.316-0.309,0.316c-0.207,0-0.413-0.105-0.517-0.105c-1.65,0-2.993,1.47-2.993,3.153c0,1.682,1.342,3.047,2.993,3.047s3.095-1.365,3.095-3.047c0-0.209-0.103-0.421-0.103-0.525l0.412-0.525c7.429,5.045,15.477,5.677,24.142,0.423l3.508,3.675l4.953-4.938l-3.612-3.682C106.654,73.717,92.831,58.054,80.448,58.475"/></g>
		</g>
	</g>
<g><g transform="rotate(-77.3,80,80)"><g transform="translate(72.2,8) scale(0.015234375000000001,0.02361328125)"><g transform="scale(1,-1) translate(0,-820)"><path d="M120 478V-140Q120 -161 137 -172Q171 -188 205 -175Q230 -162 231 -135V478H242H341Q353 478 356 486Q359 493 351 505Q327 545 296 570Q283 580 275 567Q251 536 236 512Q233 511 231 507L232 714Q232 727 242 730Q267 737 267 754Q267 770 237 777Q179 787 127 792Q120 792 120 786Q120 782 121 774L120 505H93H85L21 512Q11 513 12 508Q16 490 20 473Q21 467 28 470L93 478H120V478ZM574 294V259Q574 238 590 228Q623 212 656 224Q681 237 681 263V294H789V270Q789 249 797 238Q806 226 829 226Q865 229 883 239Q899 249 900 269V465Q900 478 910 483Q931 492 931 504Q931 514 919 524Q873 557 822 575Q815 578 810 574Q797 561 784 544Q778 537 772 537H681V622H808H843H954V622Q967 622 971 629Q974 635 967 643V643Q936 686 890 716Q880 723 873 715Q846 687 824 656Q821 652 816 649Q812 649 808 649H681L682 716Q682 729 692 732Q714 739 715 755Q715 771 687 777Q632 787 581 792Q574 791 574 786Q575 780 575 775L574 649H389H381L320 656Q307 659 309 652Q313 633 319 616Q320 609 330 613L389 622H574V537H482Q430 565 383 579Q373 583 372 576Q373 572 373 569V248Q372 227 380 221Q393 211 415 211Q443 212 466 225Q484 237 484 264V294H574V294ZM574 321H484V402H574V321V321ZM681 402H789V321H681V402V402ZM574 429H484V510H574V429V429ZM681 510H778Q785 513 789 504V429H681V510V510ZM734 762Q747 749 754 728Q761 709 761 690Q762 675 770 666Q785 653 806 656Q828 660 836 682Q840 698 834 714Q825 733 803 751Q781 767 741 778Q734 782 731 775Q728 768 734 762V762V762ZM696 122V-38Q696 -50 688 -58Q681 -65 667 -66Q625 -66 581 -64Q572 -64 572 -74Q571 -83 582 -86Q625 -99 644 -125Q660 -146 661 -171Q661 -177 671 -177Q735 -176 771 -146Q807 -116 807 -78V122H817H852H970V122Q983 122 987 129Q990 135 983 143V143Q950 189 901 219Q891 226 884 218Q856 188 833 157Q829 153 817 149H807V164Q807 173 815 175Q837 182 838 196Q838 212 809 217Q752 227 704 230Q697 231 697 221Q696 212 697 205L696 149H377H369L308 156Q295 159 297 152Q301 133 307 116Q308 109 318 113L377 122H696V122ZM449 86Q467 68 476 42Q483 17 484 -8Q484 -27 495 -41Q511 -56 537 -53Q564 -50 575 -24Q581 -5 573 17Q563 42 536 66Q508 90 459 105Q450 109 446 102Q443 92 449 86V86V86V87V86Z" fill="#FF0100"/></g></g></g><g transform="rotate(-55.21428571428571,80,80)"><g transform="translate(72.2,8) scale(0.015234375000000001,0.02361328125)"><g transform="scale(1,-1) translate(0,-820)"><path d="M261 226Q243 133 194 43Q145 -42 90 -98Q84 -102 86 -109Q89 -113 96 -111Q169 -78 244 -6Q311 64 369 170Q373 180 382 180Q403 181 405 193Q406 206 383 217Q329 239 274 248Q267 249 264 240Q263 233 261 226V226V226ZM693 216Q684 220 680 212Q676 205 686 197Q734 158 776 77Q812 8 819 -64Q820 -100 835 -114Q850 -130 872 -128Q897 -127 918 -100Q937 -78 935 -47Q934 19 870 81Q798 151 693 216V216V216ZM221 353Q270 525 290 629Q387 630 530 644Q681 660 820 689Q836 692 851 688Q867 685 874 694Q880 706 864 721Q819 761 770 789Q764 792 755 787Q679 747 565 715Q451 684 306 659Q254 699 206 721Q196 724 195 715Q179 582 131 415L81 355Q77 348 88 340Q125 313 164 285Q174 278 182 286L210 326H476V-38Q476 -48 468 -57Q461 -64 448 -64Q408 -63 365 -60Q358 -60 356 -69Q355 -79 366 -82Q409 -98 426 -124Q441 -146 441 -171Q441 -175 451 -177Q515 -176 551 -146Q587 -116 587 -78V326H728H770H918Q931 326 935 333Q938 339 931 347V347Q889 402 828 439Q815 446 807 437Q776 400 750 363Q744 356 730 353H587V540Q587 549 595 551Q617 558 618 572Q618 588 589 593Q532 603 484 606Q477 607 477 597Q476 588 477 581L476 353H221V353V354V353Z" fill="#FF0100"/></g></g></g><g transform="rotate(-33.128571428571426,80,80)"><g transform="translate(72.2,8) scale(0.015234375000000001,0.02361328125)"><g transform="scale(1,-1) translate(0,-820)"><path d="M611 405Q614 329 627 244Q642 150 673 79Q674 75 677 70Q628 -3 562 -65Q486 -128 420 -160Q413 -163 414 -170Q415 -177 424 -175Q497 -162 596 -112Q665 -70 721 -13Q740 -43 762 -70Q810 -127 880 -165Q890 -171 894 -163Q910 -130 935 -109Q960 -90 991 -88Q1001 -87 1002 -80Q1002 -71 993 -70Q923 -51 860 -4Q818 27 784 66Q842 154 872 268Q900 383 909 510H962Q975 510 979 517Q982 523 975 531V531Q935 585 876 620Q864 627 856 618Q825 584 800 546Q796 540 789 537Q785 537 782 537H689Q690 541 693 544Q718 604 748 702Q752 720 763 723Q788 727 790 742Q791 755 774 764Q753 771 711 782Q674 791 647 794Q632 797 633 779Q632 746 627 683Q623 629 608 554Q599 511 585 471Q561 511 528 537Q515 547 507 533Q482 502 467 477Q463 473 452 469H429Q433 473 437 478Q510 563 556 645Q562 655 571 656Q586 657 589 669Q592 681 573 689Q524 708 471 718Q465 719 463 713Q462 707 461 701Q452 679 442 653Q424 678 403 695Q391 705 383 692Q359 664 344 640Q341 636 338 633Q335 633 332 633V718Q332 728 339 729Q364 736 364 751Q364 761 343 770Q289 785 227 790Q220 791 220 786Q220 777 220 769V633H157H149L85 640Q75 641 76 636Q80 618 84 601Q85 595 92 598L157 606H220V469H105H97L33 476Q23 477 24 472Q28 454 32 437Q33 431 40 434L105 442H307Q265 396 219 349H165H157L97 357Q85 361 87 352Q91 334 96 314Q97 310 110 314L165 322H188Q106 253 28 207Q22 204 24 197Q25 193 34 194Q137 236 241 304Q254 313 268 322H371Q350 274 321 226Q284 232 252 234Q245 235 245 225Q244 216 245 209L244 121Q96 102 37 100Q27 101 28 91Q31 81 46 40Q56 12 66 -8Q73 -21 84 -19Q93 -18 96 -4Q99 3 125 12Q185 30 244 46V-34Q245 -47 236 -56Q229 -63 214 -64Q168 -65 121 -64Q112 -64 111 -74Q111 -83 122 -85Q168 -98 188 -122Q206 -141 208 -168Q209 -174 219 -173Q283 -172 319 -142Q355 -112 355 -74V81Q404 97 452 114Q558 150 589 165Q602 172 600 181Q599 190 583 186Q477 161 355 139V168Q355 177 363 179Q385 186 386 200Q386 212 371 217Q423 245 487 283Q494 287 502 286Q518 285 527 293Q531 303 521 315Q475 355 421 384Q412 388 404 385Q382 373 366 357Q359 353 349 349H304Q358 392 405 442H452H473H575Q574 439 573 435Q549 380 524 341Q518 334 523 327Q527 321 538 329Q557 344 585 374Q598 389 611 405V405V405ZM663 282Q639 349 632 434Q636 441 642 448Q661 479 677 510H779H801Q792 389 771 296Q752 217 722 151Q685 211 663 282V282V282ZM376 532Q357 504 332 473V606H351H419Q400 570 376 532V532V532V533V532Z" fill="#FF0100"/></g></g></g><g transform="rotate(-11.042857142857144,80,80)"><g transform="translate(72.2,8) scale(0.015234375000000001,0.02361328125)"><g transform="scale(1,-1) translate(0,-820)"><path d="M763 462Q781 437 794 407Q807 374 825 365Q844 355 865 364Q887 373 900 404Q910 432 899 460Q877 512 809 542Q730 578 627 597Q617 598 615 589Q615 580 626 577Q672 559 726 506Q733 499 741 490Q590 480 413 483Q358 484 313 484Q326 488 345 492Q433 513 494 545Q513 555 522 552Q538 548 547 559Q553 572 533 588Q508 609 481 626H764H799H946V626Q959 626 963 633Q966 639 959 647V647Q919 701 860 736Q848 743 840 734Q809 700 783 662Q779 656 771 653Q767 653 764 653H544Q563 662 571 686Q575 707 564 727Q551 752 520 773Q489 792 437 803Q427 807 423 798Q420 788 428 781Q447 765 460 739Q470 715 473 690Q474 671 488 658Q491 657 495 653H142H134L72 660Q59 663 61 656Q65 637 71 620Q72 613 82 617L142 626H414Q380 592 322 552Q256 512 198 490Q173 493 157 495Q145 498 146 487Q147 475 155 430Q162 399 168 376Q172 361 185 360Q195 360 202 375Q205 382 234 387Q457 411 633 440Q715 453 763 462V462V462ZM344 38H677V-30Q677 -43 667 -55Q660 -62 643 -66Q625 -67 574 -67Q559 -66 557 -76Q556 -88 567 -91Q606 -97 631 -125Q650 -150 655 -173Q656 -183 664 -182Q706 -182 747 -158Q787 -133 788 -73V247Q788 265 802 273Q832 283 834 298Q835 311 822 325Q792 350 723 383Q711 389 703 380Q690 364 671 338Q664 331 647 329H355Q295 363 245 380Q238 381 235 380Q234 379 233 372V-139Q233 -158 242 -167Q252 -177 274 -178Q310 -178 329 -162Q344 -150 344 -117V38V38ZM344 65V170H677V65H344V65ZM344 197V302H667Q676 303 677 291V197H344V197V198V197Z" fill="#FF0100"/></g></g></g><g transform="rotate(11.042857142857144,80,80)"><g transform="translate(72.2,8) scale(0.015234375000000001,0.02361328125)"><g transform="scale(1,-1) translate(0,-820)"><path d="M202 357H151Q184 483 210 614H261H282H397Q409 614 412 622Q415 629 407 641Q379 686 342 714Q329 724 318 711Q293 677 277 649Q273 645 261 641H216Q219 663 224 683Q228 711 244 714Q269 720 270 737Q269 753 222 768Q170 783 134 790Q124 791 124 785Q124 784 124 781Q123 727 106 641H97H89L25 648Q15 649 16 644Q20 626 24 609Q25 603 32 606L97 614H101Q83 527 53 409L19 369Q13 362 22 356Q59 325 94 295Q104 285 111 293L140 330H202V158Q123 142 35 134Q22 133 25 122Q44 65 64 23Q74 -2 87 0Q99 3 103 22Q104 35 133 46Q167 62 202 78V-141Q202 -162 218 -172Q251 -188 284 -176Q309 -163 309 -137V130Q379 169 430 208Q437 217 434 223Q430 230 419 224Q361 202 309 185V330H342H417V330Q429 330 432 338Q436 347 427 358Q403 398 372 422Q359 432 351 419Q327 388 312 364Q311 363 309 361L310 444Q310 457 320 460Q342 467 343 483Q343 499 315 505Q260 515 209 520Q202 519 202 514Q203 508 203 503L202 357V357ZM646 130V-121Q646 -142 662 -152Q695 -168 728 -156Q753 -143 753 -117V130H839V-37Q839 -53 828 -60Q824 -61 817 -62Q811 -63 789 -60Q776 -56 772 -65Q768 -75 778 -80Q806 -90 822 -108Q837 -124 835 -158Q834 -168 840 -170Q871 -171 908 -152Q944 -130 946 -69V431Q946 446 959 450Q981 457 982 469Q982 482 971 492Q947 514 886 547Q870 553 862 544Q849 525 838 506Q834 499 819 497H753V598H852H873H977Q989 598 992 606Q995 613 987 625Q962 667 928 693Q915 703 907 689Q882 658 867 633Q863 629 852 625H753L754 716Q754 729 764 732Q786 739 787 755Q787 771 759 777Q704 787 653 792Q646 791 646 786Q647 780 647 775L646 625H509H501L437 632Q427 633 428 628Q432 610 436 593Q437 587 444 590L509 598H646V497H572Q514 530 466 545Q459 548 457 546Q456 545 455 538V-144Q455 -163 464 -171Q474 -181 495 -182Q529 -181 547 -166Q562 -156 562 -123V130H646V130ZM646 157H562V302H646V157V157ZM753 302H839V157H753V302V302ZM646 329H562V469L569 470H646V329V329ZM753 470H828Q838 470 839 451V329H753V470V470ZM796 763Q809 748 816 728Q820 709 821 689Q820 674 828 664Q841 651 861 653Q883 654 892 675Q896 690 892 707Q885 728 864 746Q843 765 805 778Q798 782 794 775Q791 768 796 763V763V763V764V763Z" fill="#FF0100"/></g></g></g><g transform="rotate(33.12857142857143,80,80)"><g transform="translate(72.2,8) scale(0.015234375000000001,0.02361328125)"><g transform="scale(1,-1) translate(0,-820)"><path d="M279 753Q228 781 185 791Q173 794 173 784Q173 772 173 765V467Q173 442 187 404Q203 367 253 349Q305 333 535 332Q695 333 753 338Q811 342 864 358Q915 374 916 406Q916 439 885 453Q866 466 864 494Q864 527 864 558Q863 571 853 572Q846 572 842 559Q833 528 821 500Q809 475 795 460Q777 450 741 442Q705 436 512 435Q331 435 313 441Q297 447 290 459Q284 472 284 502V550H645V542Q645 521 653 510Q662 498 685 498Q721 501 739 511Q755 521 756 541V681Q756 694 766 699Q787 708 787 720Q787 730 775 740Q729 773 678 791Q671 794 666 790Q653 777 640 760Q634 753 628 753H279V753ZM284 726H634Q641 729 645 720V577H284V726V726ZM600 194V-46Q600 -56 592 -65Q585 -72 572 -71Q523 -70 470 -64Q461 -64 460 -74Q459 -83 470 -86Q519 -99 542 -127Q561 -149 563 -179Q564 -185 575 -185Q639 -184 675 -154Q711 -124 711 -86V194H792H827H974V194Q987 194 991 201Q994 207 987 215V215Q947 269 888 304Q876 311 868 302Q837 268 811 230Q807 224 799 221Q795 221 792 221H711V256Q711 265 719 267Q741 274 742 288Q742 304 713 309Q656 319 608 322Q601 323 601 313Q600 304 601 297L600 221H105H97L36 228Q23 231 25 224Q29 205 35 188Q36 181 46 185L105 194H600V194ZM205 148Q236 126 257 88Q276 54 284 15Q288 -13 310 -31Q331 -46 358 -39Q388 -32 396 -1Q403 27 389 58Q370 94 329 124Q286 154 213 171Q203 175 199 165Q196 155 205 148V148V148V149V148Z" fill="#FF0100"/></g></g></g><g transform="rotate(55.21428571428571,80,80)"><g transform="translate(72.2,8) scale(0.015234375000000001,0.02361328125)"><g transform="scale(1,-1) translate(0,-820)"><path d="M571 704L585 706H689V-46Q689 -97 714 -123Q742 -150 826 -150Q884 -149 914 -143Q944 -139 967 -124Q989 -111 989 -83Q989 -52 962 -40Q952 -33 948 -23Q944 -10 943 11Q942 29 943 53Q942 65 933 66Q924 67 921 55Q914 24 904 -6Q895 -31 878 -37Q865 -43 819 -43Q812 -43 805 -34Q801 -28 800 -12V677Q799 686 809 689Q824 696 825 705Q825 714 814 723Q775 756 736 775Q727 779 720 775Q698 762 683 745Q674 735 665 733H585H579Q516 770 469 789Q460 793 460 773Q460 658 461 364Q460 243 454 168Q447 92 426 27Q404 -33 367 -81Q333 -124 287 -153Q280 -157 283 -165Q286 -172 295 -169Q362 -153 417 -114Q475 -68 509 -10Q543 53 559 153Q571 237 572 364L571 704V704ZM271 413Q281 400 291 381Q309 345 314 308Q318 280 337 261Q353 248 378 251Q403 255 412 281Q421 309 410 338Q397 375 358 407Q325 435 271 455V522H300H321H425Q437 522 440 530Q443 537 435 549Q410 591 376 617Q363 627 355 613Q330 582 315 557Q311 553 300 549H271L272 718Q272 731 282 734Q307 741 307 758Q307 774 277 781Q219 791 167 796Q160 796 160 790Q160 786 161 778L160 549H97H89L25 556Q15 557 16 552Q20 534 24 517Q25 511 32 514L97 522H155Q136 399 93 266Q50 148 19 90Q13 83 17 77Q23 71 32 77Q69 105 105 154Q142 209 160 281V-140Q160 -161 177 -172Q211 -188 245 -175Q270 -162 271 -135V413V413V414V413Z" fill="#FF0100"/></g></g></g><g transform="rotate(77.3,80,80)"><g transform="translate(72.2,8) scale(0.015234375000000001,0.02361328125)"><g transform="scale(1,-1) translate(0,-820)"><path d="M263 408Q273 392 283 373Q299 333 303 292Q304 261 325 239Q341 224 365 227Q390 230 401 255Q413 283 404 316Q391 356 354 394Q320 427 263 452V522H288H309H413Q425 522 428 530Q431 537 423 549Q398 591 364 617Q351 627 343 613Q318 582 303 557Q299 553 288 549H263L264 718Q264 731 274 734Q299 741 299 758Q299 774 269 781Q211 791 159 796Q152 796 152 790Q152 786 153 778L152 549H97H89L25 556Q15 557 16 552Q20 534 24 517Q25 511 32 514L97 522H147Q129 399 89 266Q49 148 18 89Q14 83 17 77Q23 71 32 77Q69 105 104 155Q135 204 152 265V-140Q152 -161 169 -172Q203 -188 237 -175Q262 -162 263 -135V408V408ZM572 587L589 590L835 591Q844 592 845 578Q846 182 832 36Q828 -10 806 -31Q793 -47 767 -52Q728 -59 647 -52Q637 -52 635 -58Q634 -65 642 -69Q697 -90 717 -115Q736 -140 733 -165Q732 -172 756 -173Q804 -172 844 -153Q883 -137 907 -92Q932 -46 941 37Q954 146 952 532Q951 560 964 564Q986 573 986 587Q986 600 968 614Q926 644 885 661Q872 665 867 659Q851 643 838 623Q835 616 826 617H589H586Q602 654 622 699Q628 717 639 718Q666 719 668 735Q671 748 654 758Q635 768 593 782Q556 794 530 799Q515 803 514 785Q511 754 500 691Q493 642 474 576Q459 521 435 471Q410 422 385 390Q378 383 382 376Q386 369 397 377Q416 389 444 413Q474 440 503 476Q533 515 558 559Q564 572 572 587V587V587ZM497 264Q458 209 431 182Q427 178 419 173Q415 174 412 174Q402 175 403 165Q404 155 417 113Q426 85 434 64Q440 51 452 51Q461 52 465 66Q468 73 494 80Q588 108 662 134Q684 141 701 148Q702 142 703 134Q704 98 725 74Q741 58 765 59Q790 60 802 85Q818 116 810 152Q800 198 760 242Q720 287 643 325Q634 329 630 322Q626 313 632 307Q665 274 684 226Q691 204 697 178Q624 172 538 171Q495 171 465 171Q517 211 566 268Q624 341 661 412Q664 418 670 419Q689 420 693 433Q694 446 674 453Q625 469 571 478Q565 479 565 473Q564 464 563 456Q550 381 517 305Q507 286 498 265Q497 265 497 264V264V264V265V264Z" fill="#FF0100"/></g></g></g></g><g><g transform="translate(48.8,113.4264) scale(0.012187500000000002,0.018890625000000005)"><g transform="scale(1,-1) translate(0,-820)"><path d="M529 125Q545 82 569 38Q600 -14 638 -53Q678 -93 732 -124Q783 -152 859 -175Q878 -182 880 -164Q884 -136 908 -107Q938 -73 968 -65Q983 -61 980 -52Q977 -42 964 -42Q910 -48 842 -38Q769 -26 720 -5Q660 22 621 59Q578 99 543 162H773H808H962V162Q975 162 979 169Q982 175 975 183V183Q933 238 872 275Q859 282 851 273Q820 236 792 199Q788 192 773 189H545Q549 217 554 247Q555 257 562 259Q583 266 583 279Q583 292 558 297Q506 306 451 308Q444 308 443 300Q443 284 443 262Q442 225 437 189H121H113L52 196Q39 199 41 192Q45 173 51 156Q52 149 62 153L121 162H432Q423 119 407 78Q370 -18 261 -83Q155 -141 47 -162Q40 -163 39 -171Q39 -178 47 -179Q182 -170 307 -122Q440 -64 496 41Q515 81 529 125V125V125ZM84 729Q109 708 127 675Q143 644 147 612Q151 587 168 571Q187 556 214 562Q242 568 251 597Q257 622 246 649Q230 680 194 708Q157 735 92 750Q82 754 79 746Q76 736 84 729V729V729ZM296 500Q236 487 170 473Q79 457 44 454Q32 453 36 443Q40 433 59 395Q72 368 84 349Q91 337 103 340Q112 341 114 357Q115 364 140 375Q228 418 296 456V356Q296 335 313 324Q347 308 381 321Q406 334 407 361L408 706Q408 719 418 722Q443 729 443 746Q443 762 413 769Q355 779 303 784Q296 784 296 778Q296 774 297 766L296 500V500ZM579 572Q586 563 594 550Q604 528 607 506Q608 488 621 477Q639 465 663 471Q688 478 694 504Q698 523 688 541Q675 563 647 581Q631 591 609 597Q637 624 666 655L689 658H840Q816 600 771 546Q723 492 653 445Q565 390 479 358Q469 355 469 345Q470 336 484 338Q575 356 687 404Q778 444 853 508Q916 569 942 618Q945 624 952 634Q961 647 969 649Q991 656 990 670Q990 682 973 691Q933 716 881 736Q874 740 867 735Q857 716 850 698Q849 689 842 685H691Q697 692 703 699Q707 708 716 708Q737 707 740 717Q744 730 722 743Q674 771 623 788Q616 789 612 782Q609 775 607 768Q585 693 536 623Q490 557 439 517Q433 513 435 507Q436 503 443 504Q509 520 578 571Q578 572 579 572V572V572V573V572Z" fill="#FF0100"/></g></g><g transform="translate(61.28,113.4264) scale(0.012187500000000002,0.018890625000000005)"><g transform="scale(1,-1) translate(0,-820)"><path d="M701 293Q702 275 705 256Q718 135 740 68Q762 -5 795 -61Q832 -125 871 -161Q880 -171 888 -157Q903 -129 935 -104Q963 -82 988 -79Q998 -78 999 -73Q1000 -67 992 -64Q928 -31 877 21Q831 67 788 148Q758 205 739 282Q723 349 716 450H816H837H957Q969 450 972 458Q975 465 967 477Q937 523 899 553Q884 563 874 549Q849 513 832 486Q828 480 816 477H717Q727 598 727 709Q727 718 736 722Q757 728 757 741Q757 756 732 762Q677 772 624 774Q617 775 616 766Q616 748 616 709Q616 576 613 477H505H497L433 484Q423 485 424 480Q428 462 432 445Q433 439 440 442L505 450H612Q612 446 612 442Q608 324 591 214Q575 102 527 8Q478 -88 407 -151Q400 -158 402 -165Q405 -169 414 -167Q508 -124 588 -22Q661 78 688 212Q695 252 701 293V293V293ZM773 709Q791 690 801 661Q808 634 808 607Q808 588 820 572Q838 556 865 558Q893 561 906 589Q913 610 905 633Q895 661 866 686Q838 711 784 729Q774 733 770 726Q766 716 773 709V709V709ZM70 597Q101 563 116 513Q129 467 127 422Q126 386 144 361Q160 342 188 342Q216 342 232 369Q248 399 242 436Q235 482 197 528Q160 574 84 616Q74 622 69 614Q65 604 70 597V597V597ZM280 227V-140Q280 -161 297 -172Q331 -188 365 -175Q390 -162 391 -135L392 718Q392 731 402 734Q427 741 427 758Q427 774 397 781Q339 791 287 796Q280 796 280 790Q280 786 281 778L280 273Q219 254 149 234Q65 210 32 206Q20 205 25 194Q29 184 55 145Q71 117 87 99Q97 86 108 91Q118 94 118 110Q119 119 144 133Q220 182 278 226Q278 227 280 227V227V227V228V227Z" fill="#FF0100"/></g></g><g transform="translate(73.76,113.4264) scale(0.012187500000000002,0.018890625000000005)"><g transform="scale(1,-1) translate(0,-820)"><path d="M560 32Q424 81 280 103Q270 104 268 96Q267 89 276 84Q400 35 493 -24Q584 -79 632 -135Q657 -166 681 -169Q706 -170 725 -152Q740 -133 740 -105Q737 -75 720 -58Q678 -12 592 20Q692 98 812 203Q819 207 826 206Q842 206 850 215Q854 225 843 236Q798 273 744 300Q737 304 728 301Q707 289 692 273Q686 269 676 265H409Q433 329 457 394H777H812H966V394Q979 394 983 401Q986 407 979 415V415Q937 470 876 507Q863 514 855 505Q824 468 796 431Q792 424 777 421H466Q490 491 513 562H689H724H878V562Q891 562 895 569Q898 575 891 583V583Q849 638 788 675Q775 682 767 673Q736 636 708 599Q704 592 689 589H522Q534 628 546 666Q555 694 570 697Q598 698 600 717Q601 733 555 755Q503 776 466 788Q456 789 455 784Q455 783 454 780Q444 707 407 589H193H185L124 596Q111 599 113 592Q117 573 123 556Q124 549 134 553L193 562H398Q377 499 349 421H121H113L52 428Q39 431 41 424Q45 405 51 388Q52 381 62 385L121 394H339Q327 366 316 332L252 285Q245 281 252 271Q265 253 279 234Q279 234 280 232Q280 232 282 230Q295 212 310 192Q319 179 327 186L391 238H699Q641 133 560 32V32V32V33V32Z" fill="#FF0100"/></g></g><g transform="translate(86.24,113.4264) scale(0.012187500000000002,0.018890625000000005)"><g transform="scale(1,-1) translate(0,-820)"><path d="M460 222V-121Q460 -146 478 -156Q512 -172 546 -159Q571 -149 572 -121V222H777V-22Q777 -35 767 -47Q760 -54 743 -55Q727 -56 679 -51Q664 -50 661 -59Q660 -71 670 -75Q710 -82 733 -113Q752 -140 755 -164Q756 -174 764 -173Q806 -174 847 -150Q887 -125 888 -65V651Q888 669 902 677Q932 687 934 702Q935 715 922 729Q892 754 823 787Q811 793 803 784Q790 768 771 742Q764 735 747 733H277Q216 764 169 781Q162 784 161 772Q161 738 161 690V536Q161 341 154 227Q147 103 127 8Q109 -79 79 -152Q73 -159 78 -166Q82 -170 93 -165Q145 -117 186 -35Q234 65 252 199Q253 211 254 222H460V222ZM460 249H257Q267 351 271 462H460V249V249ZM572 462H777V249H572V462V462ZM460 489H271Q272 513 272 536V690Q272 697 272 706H460V489V489ZM572 706H767Q776 707 777 695V489H572V706V706V707V706Z" fill="#FF0100"/></g></g><g transform="translate(98.72,113.4264) scale(0.012187500000000002,0.018890625000000005)"><g transform="scale(1,-1) translate(0,-820)"><path d="M718 661H553Q563 671 568 687Q572 708 561 728Q548 753 517 773Q486 792 433 803Q423 807 419 797Q416 787 424 780Q443 764 455 738Q465 714 468 689Q469 673 479 661H185H177L116 668Q103 671 105 664Q109 645 115 628Q116 621 126 625L185 634H718H753H886V634Q899 634 903 641Q906 647 899 655V655Q863 704 809 738Q799 745 790 736Q760 703 736 669Q732 665 725 661Q721 661 718 661V661V661ZM774 493H636Q670 514 703 543Q716 556 726 557Q747 560 748 573Q749 589 722 598Q676 614 624 626Q615 627 614 617Q607 559 585 493H418Q425 502 429 513Q433 532 424 552Q411 577 383 596Q355 615 305 626Q295 630 291 621Q287 611 295 604Q311 588 321 564Q330 542 330 518Q330 505 338 493H133H125L64 500Q51 503 53 496Q57 477 63 460Q64 453 74 457L133 466H774H809H942V466Q955 466 959 473Q962 479 955 487V487Q919 536 865 570Q855 577 846 568Q816 535 792 501Q788 497 781 493Q777 493 774 493V493V493ZM452 18V-133Q452 -158 470 -168Q504 -184 538 -171Q563 -161 564 -133V18H783H818H958V18Q971 18 975 25Q978 31 971 39V39Q934 91 877 125Q865 132 857 123Q827 89 802 54Q798 48 790 45Q786 45 783 45H564V146H701Q701 125 709 114Q718 102 741 102Q777 105 795 115Q811 125 812 145V321Q812 334 822 339Q843 348 843 360Q843 370 831 380Q785 413 734 431Q727 434 722 430Q709 417 696 400Q690 393 684 393H318Q266 421 219 435Q209 439 208 432Q209 428 209 425V124Q208 103 216 97Q229 87 251 87Q279 88 302 101Q320 113 320 140V146H452V45H121H113L52 52Q39 55 41 48Q45 29 51 12Q52 5 62 9L121 18H452V18ZM320 173V254H701V173H320V173ZM320 281V366H690Q697 369 701 360V281H320V281V282V281Z" fill="#FF0100"/></g></g></g><g><g transform="rotate(46.5,80,80)"><g transform="translate(77.6,144.2) scale(0.009375,0.009375)"><g transform="scale(1,-1) translate(0,-820)"><path d="M74 599V55Q74 31 65 17Q59 5 28 5V-42H203H291Q370 -42 420 10Q481 74 482 159Q482 268 409 326Q387 344 362 354Q380 366 398 382Q458 428 458 521Q458 594 410 643Q359 695 284 695H204H28V648Q64 648 69 634Q73 621 74 599V599V599ZM167 326H271Q307 326 343 289Q388 243 388 159Q388 84 357 37Q338 6 291 5H203Q184 5 176 17Q167 30 167 55V326V326ZM167 599Q167 620 178 635Q188 648 204 648H284Q314 648 339 615Q364 581 364 521Q364 451 334 411Q303 372 271 372H167V599V599V600V599Z" fill="#FF0100"/></g></g></g><g transform="rotate(41.60526315789474,80,80)"><g transform="translate(77.6,144.2) scale(0.009375,0.009375)"><g transform="scale(1,-1) translate(0,-820)"><path d="M28 330Q28 161 88 64Q163 -54 256 -54Q353 -54 422 60Q480 160 482 330Q482 457 425 565Q355 695 257 695Q155 695 86 570Q28 458 28 330V330V330ZM121 330Q121 454 156 549Q198 648 257 648Q309 648 352 547Q389 456 389 330Q389 167 349 82Q309 -6 256 -7Q205 -7 160 84Q121 166 121 330V330V330V331V330Z" fill="#FF0100"/></g></g></g><g transform="rotate(36.71052631578947,80,80)"><g transform="translate(77.6,144.2) scale(0.009375,0.009375)"><g transform="scale(1,-1) translate(0,-820)"><path d="M184 45V604Q184 625 190 637Q197 647 225 648V695H48V648Q76 648 84 637Q91 627 91 604V45Q91 27 84 16Q78 6 48 5V-42H239H409L476 146H429Q398 70 361 36Q324 5 285 5Q266 5 239 5Q199 5 191 16Q184 26 184 45V45V45V46V45Z" fill="#FF0100"/></g></g></g><g transform="rotate(31.815789473684212,80,80)"><g transform="translate(77.6,144.2) scale(0.009375,0.009375)"><g transform="scale(1,-1) translate(0,-820)"><path d="M78 590V58Q78 33 68 19Q58 6 43 5Q37 5 29 5V-42H209H342H454L488 154H441Q410 48 388 25Q369 6 342 5H209Q187 5 178 20Q171 33 171 58V317H243Q270 317 281 301Q294 285 294 204H341V471H294Q294 401 282 381Q270 363 243 363H171V590Q171 617 181 633Q190 648 210 648H346Q367 648 392 620Q416 592 433 510H480L455 695H210H29V648Q35 648 45 648Q64 648 71 633Q78 617 78 590V590V590V591V590Z" fill="#FF0100"/></g></g></g><g transform="rotate(26.92105263157895,80,80)"><g transform="translate(77.6,144.2) scale(0.009375,0.009375)"><g transform="scale(1,-1) translate(0,-820)"><path d="M304 241H498V340H304V540H205V340H14V241H205V53H304V241V241V242V241Z" fill="#FF0100"/></g></g></g><g transform="rotate(22.026315789473685,80,80)"><g transform="translate(77.6,144.2) scale(0.009375,0.009375)"><g transform="scale(1,-1) translate(0,-820)"><path d="M78 590V58Q78 33 68 19Q58 6 43 5Q37 5 29 5V-42H209H342H454L488 154H441Q410 48 388 25Q369 6 342 5H209Q187 5 178 20Q171 33 171 58V317H243Q270 317 281 301Q294 285 294 204H341V471H294Q294 401 282 381Q270 363 243 363H171V590Q171 617 181 633Q190 648 210 648H346Q367 648 392 620Q416 592 433 510H480L455 695H210H29V648Q35 648 45 648Q64 648 71 633Q78 617 78 590V590V590V591V590Z" fill="#FF0100"/></g></g></g><g transform="rotate(17.131578947368425,80,80)"><g transform="translate(77.6,144.2) scale(0.009375,0.009375)"><g transform="scale(1,-1) translate(0,-820)"><path d="M81 599V50Q81 28 74 17Q67 5 48 5Q41 5 32 5V-42H232H266Q324 -42 370 -6Q425 28 449 92Q479 165 479 318Q479 462 453 540Q428 616 387 653Q341 695 267 695V695H227H32V648Q38 648 51 648Q69 648 75 634Q81 618 81 599V599V599ZM174 599Q174 618 180 634Q187 647 204 648Q214 648 227 648Q285 648 322 613Q353 577 371 511Q384 448 385 318Q385 167 363 110Q347 68 316 37Q282 6 232 5Q219 5 210 5Q188 5 181 16Q174 28 174 50V599V599V600V599Z" fill="#FF0100"/></g></g></g><g transform="rotate(12.236842105263158,80,80)"><g transform="translate(77.6,144.2) scale(0.009375,0.009375)"><g transform="scale(1,-1) translate(0,-820)"><path d="M147 233V604Q147 623 154 636Q163 648 175 648Q182 648 190 648V695H24V648Q28 648 33 648Q43 648 48 636Q54 623 54 604V233Q54 79 120 3Q174 -54 264 -54Q340 -54 391 20Q442 96 442 233V604Q442 623 450 636Q457 648 470 648Q477 648 486 648V695H351V648Q358 648 366 648Q378 648 387 635Q396 625 396 604V233Q396 121 357 56Q320 -7 264 -7Q216 -7 182 47Q148 99 147 233V233V233V234V233Z" fill="#FF0100"/></g></g></g><g transform="rotate(7.342105263157897,80,80)"><g transform="translate(77.6,144.2) scale(0.009375,0.009375)"><g transform="scale(1,-1) translate(0,-820)"><path d="M458 500L418 695H371L370 663Q324 694 269 695Q166 695 105 599Q32 481 31 306Q31 158 100 51Q170 -54 278 -54Q350 -54 395 -3Q435 45 476 150H429Q395 74 358 40Q328 12 278 12Q217 12 169 101Q126 185 125 306Q125 459 173 568Q212 647 269 648Q321 648 352 617Q391 577 411 500H458V500V501V500Z" fill="#FF0100"/></g></g></g><g transform="rotate(2.447368421052637,80,80)"><g transform="translate(77.6,144.2) scale(0.009375,0.009375)"><g transform="scale(1,-1) translate(0,-820)"><path d="M452 47L294 695H247H201L66 48Q60 26 47 14Q37 5 18 5V-42H144V5Q122 5 114 17Q110 27 112 48L149 230H314L359 47Q363 28 356 15Q352 5 337 5V-42H493V5Q474 5 463 19Q456 32 452 47V47V47ZM225 593L302 276H158L225 593V593V594V593Z" fill="#FF0100"/></g></g></g><g transform="rotate(-2.44736842105263,80,80)"><g transform="translate(77.6,144.2) scale(0.009375,0.009375)"><g transform="scale(1,-1) translate(0,-820)"><path d="M206 596V53Q206 28 201 16Q197 6 180 5Q173 5 168 5V-42H333V5Q327 5 320 5Q307 5 303 16Q299 26 299 53V596Q299 620 304 634Q310 647 329 648Q335 648 341 648Q351 648 364 648Q395 648 416 614Q432 584 447 516L473 527L445 695H341H150H56L32 522L57 512Q70 585 90 614Q109 648 150 648Q159 648 169 648Q193 648 199 634Q206 621 206 596V596V596V597V596Z" fill="#FF0100"/></g></g></g><g transform="rotate(-7.34210526315789,80,80)"><g transform="translate(77.6,144.2) scale(0.009375,0.009375)"><g transform="scale(1,-1) translate(0,-820)"><path d="M156 695V648Q162 648 176 648Q197 648 203 638Q210 628 210 613V36Q210 21 202 13Q195 6 174 5Q165 5 156 5V-42H356V5Q344 5 336 5Q315 5 309 13Q303 20 303 36V613Q303 626 309 638Q316 648 333 648Q343 648 356 648V695H156V695V696V695Z" fill="#FF0100"/></g></g></g><g transform="rotate(-12.23684210526315,80,80)"><g transform="translate(77.6,144.2) scale(0.009375,0.009375)"><g transform="scale(1,-1) translate(0,-820)"><path d="M28 330Q28 161 88 64Q163 -54 256 -54Q353 -54 422 60Q480 160 482 330Q482 457 425 565Q355 695 257 695Q155 695 86 570Q28 458 28 330V330V330ZM121 330Q121 454 156 549Q198 648 257 648Q309 648 352 547Q389 456 389 330Q389 167 349 82Q309 -6 256 -7Q205 -7 160 84Q121 166 121 330V330V330V331V330Z" fill="#FF0100"/></g></g></g><g transform="rotate(-17.131578947368418,80,80)"><g transform="translate(77.6,144.2) scale(0.009375,0.009375)"><g transform="scale(1,-1) translate(0,-820)"><path d="M446 -42V610Q446 629 453 639Q460 648 485 648V695H360V648Q384 648 393 638Q400 629 400 610V156L162 695H115H69H30V648Q52 648 61 639Q68 630 69 610V43Q69 22 61 13Q54 6 30 5V-42H155V5Q128 5 122 13Q115 22 115 43V591L399 -42H400H446V-42V-41V-42Z" fill="#FF0100"/></g></g></g><g transform="rotate(-22.026315789473685,80,80)"><g transform="translate(77.6,144.2) scale(0.009375,0.009375)"><g transform="scale(1,-1) translate(0,-820)"><path d="M304 241H498V340H304V540H205V340H14V241H205V53H304V241V241V242V241Z" fill="#FF0100"/></g></g></g><g transform="rotate(-26.921052631578945,80,80)"><g transform="translate(77.6,144.2) scale(0.009375,0.009375)"><g transform="scale(1,-1) translate(0,-820)"><path d="M458 500L418 695H371L370 663Q324 694 269 695Q166 695 105 599Q32 481 31 306Q31 158 100 51Q170 -54 278 -54Q350 -54 395 -3Q435 45 476 150H429Q395 74 358 40Q328 12 278 12Q217 12 169 101Q126 185 125 306Q125 459 173 568Q212 647 269 648Q321 648 352 617Q391 577 411 500H458V500V501V500Z" fill="#FF0100"/></g></g></g><g transform="rotate(-31.815789473684205,80,80)"><g transform="translate(77.6,144.2) scale(0.009375,0.009375)"><g transform="scale(1,-1) translate(0,-820)"><path d="M28 330Q28 161 88 64Q163 -54 256 -54Q353 -54 422 60Q480 160 482 330Q482 457 425 565Q355 695 257 695Q155 695 86 570Q28 458 28 330V330V330ZM121 330Q121 454 156 549Q198 648 257 648Q309 648 352 547Q389 456 389 330Q389 167 349 82Q309 -6 256 -7Q205 -7 160 84Q121 166 121 330V330V330V331V330Z" fill="#FF0100"/></g></g></g><g transform="rotate(-36.710526315789465,80,80)"><g transform="translate(77.6,144.2) scale(0.009375,0.009375)"><g transform="scale(1,-1) translate(0,-820)"><path d="M287 92Q244 92 215 62Q187 34 187 -10Q187 -53 214 -82Q245 -113 287 -113Q335 -113 360 -85Q387 -57 387 -10Q387 33 360 62Q330 92 287 92V92V92V93V92Z" fill="#FF0100"/></g></g></g><g transform="rotate(-41.605263157894726,80,80)"><g transform="translate(77.6,144.2) scale(0.009375,0.009375)"><g transform="scale(1,-1) translate(0,-820)"><path d="M229 78Q195 78 171 55Q150 33 150 -1Q150 -34 174 -59Q195 -81 228 -82Q209 -137 146 -160L155 -187Q230 -162 272 -115Q314 -66 314 -1Q314 33 291 56Q264 78 229 78V78V78V79V78Z" fill="#FF0100"/></g></g></g><g transform="rotate(-46.5,80,80)"><g transform="translate(77.6,144.2) scale(0.009375,0.009375)"><g transform="scale(1,-1) translate(0,-820)"><path d="M184 45V604Q184 625 190 637Q197 647 225 648V695H48V648Q76 648 84 637Q91 627 91 604V45Q91 27 84 16Q78 6 48 5V-42H239H409L476 146H429Q398 70 361 36Q324 5 285 5Q266 5 239 5Q199 5 191 16Q184 26 184 45V45V45V46V45Z" fill="#FF0100"/></g></g></g></g></g>
</svg>