<svg id="kity_svg_6" xmlns="http://www.w3.org/2000/svg" xmlns:xlink="http://www.w3.org/1999/xlink" version="1.1" width="1394" height="1956" style="background: rgb(251, 251, 251); visibility: visible;" viewBox="0 0 1394 1956"><defs id="kity_defs_7"><linearGradient id="kity_linearGradient_17" x1="0" y1="0" x2="0" y2="1"><stop id="kity_stop_18" offset="0" stop-color="rgb(255, 255, 255)"></stop><stop id="kity_stop_19" offset="1" stop-color="rgb(204, 204, 204)"></stop></linearGradient><marker id="kity_marker_2" orient="auto" refX="6" refY="0" viewBox="-7 -7 14 14" markerWidth="7" markerHeight="7" markerUnits="userSpaceOnUse"><path id="kity_path_3" fill="rgb(115, 161, 191)" stroke="none" d="M6,0A6,6,0,1,1,-6,0A6,6,0,1,1,6,0"></path></marker></defs><g id="kity_g_8"><g id="minder1" text-rendering="optimize-speed"><g id="minder_connect_group1"><path id="kity_path_31" fill="none" stroke="rgb(115, 161, 191)" stroke-width="1" d="M101.5,966.5A199,933,0,0,1,300.5,33.5"></path><path id="kity_path_39" fill="none" stroke="rgb(115, 161, 191)" stroke-width="1" d="M101.5,966.5A199,687,0,0,1,300.5,279.5"></path><path id="kity_path_47" fill="none" stroke="rgb(115, 161, 191)" stroke-width="1" d="M101.5,966.5A199,391,0,0,1,300.5,575.5"></path><path id="kity_path_55" fill="none" stroke="rgb(115, 161, 191)" stroke-width="1" d="M101.5,966.5A199,212,0,0,1,300.5,754.5"></path><path id="kity_path_63" fill="none" stroke="rgb(115, 161, 191)" stroke-width="1" d="M101.5,966.5A199,71,0,0,0,300.5,1037.5"></path><path id="kity_path_71" fill="none" stroke="rgb(115, 161, 191)" stroke-width="1" d="M101.5,966.5A199,237,0,0,0,300.5,1203.5"></path><path id="kity_path_79" fill="none" stroke="rgb(115, 161, 191)" stroke-width="1" d="M101.5,966.5A199,559,0,0,0,300.5,1525.5"></path><path id="kity_path_87" fill="none" stroke="rgb(115, 161, 191)" stroke-width="1" d="M101.5,966.5A199,933,0,0,0,300.5,1899.5"></path><path id="kity_path_95" fill="none" stroke="rgb(115, 161, 191)" stroke-width="1" d="M475.5,33.5C495.5,33.5,495.5,33.5,515.5,33.5"></path><path id="kity_path_103" fill="none" stroke="rgb(115, 161, 191)" stroke-width="1" d="M566.5,279.5C586.5,279.5,586.5,123.5,606.5,123.5"></path><path id="kity_path_111" fill="none" stroke="rgb(115, 161, 191)" stroke-width="1" d="M688.5,123.5C708.5,123.5,708.5,97.5,728.5,97.5"></path><path id="kity_path_119" fill="none" stroke="rgb(115, 161, 191)" stroke-width="1" d="M688.5,123.5C708.5,123.5,708.5,149.5,728.5,149.5"></path><path id="kity_path_127" fill="none" stroke="rgb(115, 161, 191)" stroke-width="1" d="M566.5,279.5C586.5,279.5,586.5,227.5,606.5,227.5"></path><path id="kity_path_135" fill="none" stroke="rgb(115, 161, 191)" stroke-width="1" d="M676.5,227.5C696.5,227.5,696.5,201.5,716.5,201.5"></path><path id="kity_path_143" fill="none" stroke="rgb(115, 161, 191)" stroke-width="1" d="M676.5,227.5C696.5,227.5,696.5,253.5,716.5,253.5"></path><path id="kity_path_151" fill="none" stroke="rgb(115, 161, 191)" stroke-width="1" d="M566.5,279.5C586.5,279.5,586.5,331.5,606.5,331.5"></path><path id="kity_path_159" fill="none" stroke="rgb(115, 161, 191)" stroke-width="1" d="M676.5,331.5C696.5,331.5,696.5,305.5,716.5,305.5"></path><path id="kity_path_167" fill="none" stroke="rgb(115, 161, 191)" stroke-width="1" d="M676.5,331.5C696.5,331.5,696.5,357.5,716.5,357.5"></path><path id="kity_path_175" fill="none" stroke="rgb(115, 161, 191)" stroke-width="1" d="M566.5,279.5C586.5,279.5,586.5,435.5,606.5,435.5"></path><path id="kity_path_183" fill="none" stroke="rgb(115, 161, 191)" stroke-width="1" d="M676.5,435.5C696.5,435.5,696.5,409.5,716.5,409.5"></path><path id="kity_path_191" fill="none" stroke="rgb(115, 161, 191)" stroke-width="1" d="M676.5,435.5C696.5,435.5,696.5,461.5,716.5,461.5"></path><path id="kity_path_199" fill="none" stroke="rgb(115, 161, 191)" stroke-width="1" d="M579.5,575.5C599.5,575.5,599.5,523.5,619.5,523.5"></path><path id="kity_path_207" fill="none" stroke="rgb(115, 161, 191)" stroke-width="1" d="M579.5,575.5C599.5,575.5,599.5,575.5,619.5,575.5"></path><path id="kity_path_215" fill="none" stroke="rgb(115, 161, 191)" stroke-width="1" d="M579.5,575.5C599.5,575.5,599.5,627.5,619.5,627.5"></path><path id="kity_path_223" fill="none" stroke="rgb(115, 161, 191)" stroke-width="1" d="M594.5,754.5C614.5,754.5,614.5,689.5,634.5,689.5"></path><path id="kity_path_231" fill="none" stroke="rgb(115, 161, 191)" stroke-width="1" d="M716.5,689.5C736.5,689.5,736.5,689.5,756.5,689.5"></path><path id="kity_path_239" fill="none" stroke="rgb(115, 161, 191)" stroke-width="1" d="M594.5,754.5C614.5,754.5,614.5,819.5,634.5,819.5"></path><path id="kity_path_247" fill="none" stroke="rgb(115, 161, 191)" stroke-width="1" d="M704.5,819.5C724.5,819.5,724.5,741.5,744.5,741.5"></path><path id="kity_path_255" fill="none" stroke="rgb(115, 161, 191)" stroke-width="1" d="M704.5,819.5C724.5,819.5,724.5,793.5,744.5,793.5"></path><path id="kity_path_263" fill="none" stroke="rgb(115, 161, 191)" stroke-width="1" d="M1018.5,793.5C1038.5,793.5,1038.5,793.5,1058.5,793.5"></path><path id="kity_path_271" fill="none" stroke="rgb(115, 161, 191)" stroke-width="1" d="M704.5,819.5C724.5,819.5,724.5,845.5,744.5,845.5"></path><path id="kity_path_279" fill="none" stroke="rgb(115, 161, 191)" stroke-width="1" d="M704.5,819.5C724.5,819.5,724.5,897.5,744.5,897.5"></path><path id="kity_path_288" fill="none" stroke="rgb(115, 161, 191)" stroke-width="1" d="M412.5,1037.5C432.5,1037.5,432.5,959.5,452.5,959.5"></path><path id="kity_path_296" fill="none" stroke="rgb(115, 161, 191)" stroke-width="1" d="M412.5,1037.5C432.5,1037.5,432.5,1011.5,452.5,1011.5"></path><path id="kity_path_304" fill="none" stroke="rgb(115, 161, 191)" stroke-width="1" d="M412.5,1037.5C432.5,1037.5,432.5,1063.5,452.5,1063.5"></path><path id="kity_path_312" fill="none" stroke="rgb(115, 161, 191)" stroke-width="1" d="M412.5,1037.5C432.5,1037.5,432.5,1115.5,452.5,1115.5"></path><path id="kity_path_320" fill="none" stroke="rgb(115, 161, 191)" stroke-width="1" d="M510.5,1203.5C530.5,1203.5,530.5,1177.5,550.5,1177.5"></path><path id="kity_path_328" fill="none" stroke="rgb(115, 161, 191)" stroke-width="1" d="M510.5,1203.5C530.5,1203.5,530.5,1229.5,550.5,1229.5"></path><path id="kity_path_336" fill="none" stroke="rgb(115, 161, 191)" stroke-width="1" d="M468.5,1525.5C488.5,1525.5,488.5,1291.5,508.5,1291.5"></path><path id="kity_path_344" fill="none" stroke="rgb(115, 161, 191)" stroke-width="1" d="M468.5,1525.5C488.5,1525.5,488.5,1447.5,508.5,1447.5"></path><path id="kity_path_352" fill="none" stroke="rgb(115, 161, 191)" stroke-width="1" d="M468.5,1525.5C488.5,1525.5,488.5,1759.5,508.5,1759.5"></path><path id="kity_path_360" fill="none" stroke="rgb(115, 161, 191)" stroke-width="1" d="M554.5,1291.5C574.5,1291.5,574.5,1291.5,594.5,1291.5"></path><path id="kity_path_368" fill="none" stroke="rgb(115, 161, 191)" stroke-width="1" d="M590.5,1447.5C610.5,1447.5,610.5,1343.5,630.5,1343.5"></path><path id="kity_path_376" fill="none" stroke="rgb(115, 161, 191)" stroke-width="1" d="M554.5,1759.5C574.5,1759.5,574.5,1707.5,594.5,1707.5"></path><path id="kity_path_384" fill="none" stroke="rgb(115, 161, 191)" stroke-width="1" d="M554.5,1759.5C574.5,1759.5,574.5,1759.5,594.5,1759.5"></path><path id="kity_path_392" fill="none" stroke="rgb(115, 161, 191)" stroke-width="1" d="M554.5,1759.5C574.5,1759.5,574.5,1811.5,594.5,1811.5"></path><path id="kity_path_408" fill="none" stroke="rgb(115, 161, 191)" stroke-width="1" d="M590.5,1447.5C610.5,1447.5,610.5,1395.5,630.5,1395.5"></path><path id="kity_path_416" fill="none" stroke="rgb(115, 161, 191)" stroke-width="1" d="M590.5,1447.5C610.5,1447.5,610.5,1551.5,630.5,1551.5"></path><path id="kity_path_424" fill="none" stroke="rgb(115, 161, 191)" stroke-width="1" d="M934.5,1551.5C954.5,1551.5,954.5,1447.5,974.5,1447.5"></path><path id="kity_path_432" fill="none" stroke="rgb(115, 161, 191)" stroke-width="1" d="M934.5,1551.5C954.5,1551.5,954.5,1499.5,974.5,1499.5"></path><path id="kity_path_440" fill="none" stroke="rgb(115, 161, 191)" stroke-width="1" d="M934.5,1551.5C954.5,1551.5,954.5,1551.5,974.5,1551.5"></path><path id="kity_path_448" fill="none" stroke="rgb(115, 161, 191)" stroke-width="1" d="M934.5,1551.5C954.5,1551.5,954.5,1603.5,974.5,1603.5"></path><path id="kity_path_456" fill="none" stroke="rgb(115, 161, 191)" stroke-width="1" d="M934.5,1551.5C954.5,1551.5,954.5,1655.5,974.5,1655.5"></path><path id="kity_path_473" fill="none" stroke="rgb(115, 161, 191)" stroke-width="1" d="M538.5,1899.5C558.5,1899.5,558.5,1873.5,578.5,1873.5"></path><path id="kity_path_491" fill="none" stroke="rgb(115, 161, 191)" stroke-width="1" d="M538.5,1899.5C558.5,1899.5,558.5,1925.5,578.5,1925.5"></path></g><g id="minder_node1"><path id="node_outline1" fill="rgb(115, 161, 191)" stroke="rgb(57, 80, 96)" d="M25.5,946.5h152a5,5,0,0,1,5,5v30a5,5,0,0,1,-5,5h-152a5,5,0,0,1,-5,-5v-30a5,5,0,0,1,5,-5z" stroke-width="3"></path><g id="node_text1" fill="white"><text id="kity_text_22" text-rendering="inherit" font-size="16" dy=".8em" y="958.5" x="44.5">计算机系统漫游</text></g></g><g id="kity_g_12"><path id="kity_path_13" fill="none" stroke="none" d="M44.5,966.5h0v0h0z"></path></g><g id="kity_g_14"><path id="kity_path_15" fill="none" stroke="none" d="M44.5,966.5h0v0h0z"></path><path id="kity_path_16" fill="none" stroke="none"></path></g><g id="minder_node2"><g id="node_expander1" style="cursor: pointer;"><path id="kity_path_36" fill="white" stroke="gray" d="M301.5,33.5A6,6,0,1,1,289.5,33.5A6,6,0,1,1,301.5,33.5"></path><path id="kity_path_37" fill="none" stroke="gray" d="M291,33.5L300,33.5"></path></g><path id="node_outline2" fill="rgb(238, 243, 246)" stroke="rgb(115, 161, 191)" d="M305.5,20.5h167a3,3,0,0,1,3,3v20a3,3,0,0,1,-3,3h-167a3,3,0,0,1,-3,-3v-20a3,3,0,0,1,3,-3z" stroke-width="1"></path><g id="node_text2" fill="black"><text id="kity_text_33" text-rendering="inherit" font-size="14" dy=".8em" y="26.5" x="322.5">1 信息就是位+上下文</text></g></g><g id="minder_node3"><g id="node_expander2" style="cursor: pointer;"><path id="kity_path_44" fill="white" stroke="gray" d="M301.5,279.5A6,6,0,1,1,289.5,279.5A6,6,0,1,1,301.5,279.5"></path><path id="kity_path_45" fill="none" stroke="gray" d="M291,279.5L300,279.5"></path></g><path id="node_outline3" fill="rgb(238, 243, 246)" stroke="rgb(115, 161, 191)" d="M305.5,266.5h258a3,3,0,0,1,3,3v20a3,3,0,0,1,-3,3h-258a3,3,0,0,1,-3,-3v-20a3,3,0,0,1,3,-3z" stroke-width="1"></path><g id="node_text3" fill="black"><text id="kity_text_41" text-rendering="inherit" font-size="14" dy=".8em" y="272.5" x="322.5">2 程序被其他程序翻译成不同的格式</text></g></g><g id="minder_node4"><g id="node_expander3" style="cursor: pointer;"><path id="kity_path_52" fill="white" stroke="gray" d="M301.5,575.5A6,6,0,1,1,289.5,575.5A6,6,0,1,1,301.5,575.5"></path><path id="kity_path_53" fill="none" stroke="gray" d="M291,575.5L300,575.5"></path></g><path id="node_outline4" fill="rgb(238, 243, 246)" stroke="rgb(115, 161, 191)" d="M305.5,562.5h271a3,3,0,0,1,3,3v20a3,3,0,0,1,-3,3h-271a3,3,0,0,1,-3,-3v-20a3,3,0,0,1,3,-3z" stroke-width="1"></path><g id="node_text4" fill="black"><text id="kity_text_49" text-rendering="inherit" font-size="14" dy=".8em" y="568.5" x="322.5">3 了解编译系统如何工作是大有益处的</text></g></g><g id="minder_node5"><g id="node_expander4" style="cursor: pointer;"><path id="kity_path_60" fill="white" stroke="gray" d="M301.5,754.5A6,6,0,1,1,289.5,754.5A6,6,0,1,1,301.5,754.5"></path><path id="kity_path_61" fill="none" stroke="gray" d="M291,754.5L300,754.5"></path></g><path id="node_outline5" fill="rgb(238, 243, 246)" stroke="rgb(115, 161, 191)" d="M305.5,741.5h286a3,3,0,0,1,3,3v20a3,3,0,0,1,-3,3h-286a3,3,0,0,1,-3,-3v-20a3,3,0,0,1,3,-3z" stroke-width="1"></path><g id="node_text5" fill="black"><text id="kity_text_57" text-rendering="inherit" font-size="14" dy=".8em" y="747.5" x="322.5">4 处理器读并解释储存在存储器中的指令</text></g></g><g id="minder_node6"><g id="node_expander5" style="cursor: pointer;"><path id="kity_path_68" fill="white" stroke="gray" d="M301.5,1037.5A6,6,0,1,1,289.5,1037.5A6,6,0,1,1,301.5,1037.5"></path><path id="kity_path_69" fill="none" stroke="gray" d="M291,1037.5L300,1037.5"></path></g><path id="node_outline6" fill="rgb(238, 243, 246)" stroke="rgb(115, 161, 191)" d="M305.5,1024.5h104a3,3,0,0,1,3,3v20a3,3,0,0,1,-3,3h-104a3,3,0,0,1,-3,-3v-20a3,3,0,0,1,3,-3z" stroke-width="1"></path><g id="node_text6" fill="black"><text id="kity_text_65" text-rendering="inherit" font-size="14" dy=".8em" y="1030.5" x="322.5">5 高速缓存</text></g></g><g id="minder_node7"><g id="node_expander6" style="cursor: pointer;"><path id="kity_path_76" fill="white" stroke="gray" d="M301.5,1203.5A6,6,0,1,1,289.5,1203.5A6,6,0,1,1,301.5,1203.5"></path><path id="kity_path_77" fill="none" stroke="gray" d="M291,1203.5L300,1203.5"></path></g><path id="node_outline7" fill="rgb(238, 243, 246)" stroke="rgb(115, 161, 191)" d="M305.5,1190.5h202a3,3,0,0,1,3,3v20a3,3,0,0,1,-3,3h-202a3,3,0,0,1,-3,-3v-20a3,3,0,0,1,3,-3z" stroke-width="1"></path><g id="node_text7" fill="black"><text id="kity_text_73" text-rendering="inherit" font-size="14" dy=".8em" y="1196.5" x="322.5">6 形成层次结构的存储设备</text></g></g><g id="minder_node8"><g id="node_expander7" style="cursor: pointer;"><path id="kity_path_84" fill="white" stroke="gray" d="M301.5,1525.5A6,6,0,1,1,289.5,1525.5A6,6,0,1,1,301.5,1525.5"></path><path id="kity_path_85" fill="none" stroke="gray" d="M291,1525.5L300,1525.5"></path></g><path id="node_outline8" fill="rgb(238, 243, 246)" stroke="rgb(115, 161, 191)" d="M305.5,1512.5h160a3,3,0,0,1,3,3v20a3,3,0,0,1,-3,3h-160a3,3,0,0,1,-3,-3v-20a3,3,0,0,1,3,-3z" stroke-width="1"></path><g id="node_text8" fill="black"><text id="kity_text_81" text-rendering="inherit" font-size="14" dy=".8em" y="1518.5" x="322.5">7 操作系统管理硬件</text></g></g><g id="minder_node9"><g id="node_expander8" style="cursor: pointer;"><path id="kity_path_92" fill="white" stroke="gray" d="M301.5,1899.5A6,6,0,1,1,289.5,1899.5A6,6,0,1,1,301.5,1899.5"></path><path id="kity_path_93" fill="none" stroke="gray" d="M291,1899.5L300,1899.5"></path></g><path id="node_outline9" fill="rgb(238, 243, 246)" stroke="rgb(115, 161, 191)" d="M305.5,1886.5h230a3,3,0,0,1,3,3v20a3,3,0,0,1,-3,3h-230a3,3,0,0,1,-3,-3v-20a3,3,0,0,1,3,-3z" stroke-width="1"></path><g id="node_text9" fill="black"><text id="kity_text_89" text-rendering="inherit" font-size="14" dy=".8em" y="1892.5" x="322.5">8 利用网络系统和其他系统通信</text></g></g><g id="minder_node10"><g id="node_expander9" style="cursor: pointer;" display="none"><path id="kity_path_100" fill="white" stroke="gray" d="M515.5,33.5A6,6,0,1,1,503.5,33.5A6,6,0,1,1,515.5,33.5"></path><path id="kity_path_101" fill="none" stroke="gray"></path></g><path id="node_outline10" fill="none" stroke="none" d="M520.5,22.5h231a5,5,0,0,1,5,5v12a5,5,0,0,1,-5,5h-231a5,5,0,0,1,-5,-5v-12a5,5,0,0,1,5,-5z" stroke-width="3"></path><g id="node_text10" fill="black"><text id="kity_text_97" text-rendering="inherit" font-size="12" dy=".8em" y="27.5" x="525.5">系统中的所有信息都是由一串比特表示的.</text></g></g><g id="minder_node11"><g id="node_expander10" style="cursor: pointer;"><path id="kity_path_108" fill="white" stroke="gray" d="M606.5,123.5A6,6,0,1,1,594.5,123.5A6,6,0,1,1,606.5,123.5"></path><path id="kity_path_109" fill="none" stroke="gray" d="M596,123.5L605,123.5"></path></g><path id="node_outline11" fill="none" stroke="none" d="M611.5,112.5h72a5,5,0,0,1,5,5v12a5,5,0,0,1,-5,5h-72a5,5,0,0,1,-5,-5v-12a5,5,0,0,1,5,-5z" stroke-width="3"></path><g id="node_text11" fill="black"><text id="kity_text_105" text-rendering="inherit" font-size="12" dy=".8em" y="117.5" x="616.5">预处理阶段</text></g></g><g id="minder_node12"><g id="node_expander11" style="cursor: pointer;" display="none"><path id="kity_path_116" fill="white" stroke="gray" d="M728.5,97.5A6,6,0,1,1,716.5,97.5A6,6,0,1,1,728.5,97.5"></path><path id="kity_path_117" fill="none" stroke="gray"></path></g><path id="node_outline12" fill="none" stroke="none" d="M733.5,86.5h203a5,5,0,0,1,5,5v12a5,5,0,0,1,-5,5h-203a5,5,0,0,1,-5,-5v-12a5,5,0,0,1,5,-5z" stroke-width="3"></path><g id="node_text12" fill="black"><text id="kity_text_113" text-rendering="inherit" font-size="12" dy=".8em" y="91.5" x="738.5">根据 # 开头的命令, 修改原始 C 程序</text></g></g><g id="minder_node13"><g id="node_expander12" style="cursor: pointer;" display="none"><path id="kity_path_124" fill="white" stroke="gray" d="M728.5,149.5A6,6,0,1,1,716.5,149.5A6,6,0,1,1,728.5,149.5"></path><path id="kity_path_125" fill="none" stroke="gray"></path></g><path id="node_outline13" fill="none" stroke="none" d="M733.5,138.5h521a5,5,0,0,1,5,5v12a5,5,0,0,1,-5,5h-521a5,5,0,0,1,-5,-5v-12a5,5,0,0,1,5,-5z" stroke-width="3"></path><g id="node_text13" fill="black"><text id="kity_text_121" text-rendering="inherit" font-size="12" dy=".8em" y="143.5" x="738.5">如: #include&lt;stdio.h&gt;, 预处理器会将 stdio.h 直接插入到 hello.c 的文本中去, 以 .i 作为文件后缀名</text></g></g><g id="minder_node14"><g id="node_expander13" style="cursor: pointer;"><path id="kity_path_132" fill="white" stroke="gray" d="M606.5,227.5A6,6,0,1,1,594.5,227.5A6,6,0,1,1,606.5,227.5"></path><path id="kity_path_133" fill="none" stroke="gray" d="M596,227.5L605,227.5"></path></g><path id="node_outline14" fill="none" stroke="none" d="M611.5,216.5h60a5,5,0,0,1,5,5v12a5,5,0,0,1,-5,5h-60a5,5,0,0,1,-5,-5v-12a5,5,0,0,1,5,-5z" stroke-width="3"></path><g id="node_text14" fill="black"><text id="kity_text_129" text-rendering="inherit" font-size="12" dy=".8em" y="221.5" x="616.5">编译阶段</text></g></g><g id="minder_node15"><g id="node_expander14" style="cursor: pointer;" display="none"><path id="kity_path_140" fill="white" stroke="gray" d="M716.5,201.5A6,6,0,1,1,704.5,201.5A6,6,0,1,1,716.5,201.5"></path><path id="kity_path_141" fill="none" stroke="gray"></path></g><path id="node_outline15" fill="none" stroke="none" d="M721.5,190.5h234a5,5,0,0,1,5,5v12a5,5,0,0,1,-5,5h-234a5,5,0,0,1,-5,-5v-12a5,5,0,0,1,5,-5z" stroke-width="3"></path><g id="node_text15" fill="black"><text id="kity_text_137" text-rendering="inherit" font-size="12" dy=".8em" y="195.5" x="726.5">hello.i -&gt; hello.s, 它包含一个汇编语言程序</text></g></g><g id="minder_node16"><g id="node_expander15" style="cursor: pointer;" display="none"><path id="kity_path_148" fill="white" stroke="gray" d="M716.5,253.5A6,6,0,1,1,704.5,253.5A6,6,0,1,1,716.5,253.5"></path><path id="kity_path_149" fill="none" stroke="gray"></path></g><path id="node_outline16" fill="none" stroke="none" d="M721.5,242.5h336a5,5,0,0,1,5,5v12a5,5,0,0,1,-5,5h-336a5,5,0,0,1,-5,-5v-12a5,5,0,0,1,5,-5z" stroke-width="3"></path><g id="node_text16" fill="black"><text id="kity_text_145" text-rendering="inherit" font-size="12" dy=".8em" y="247.5" x="726.5">汇编语言程序为不同高级语言的编译器提供了通用的输出语言</text></g></g><g id="minder_node17"><g id="node_expander16" style="cursor: pointer;"><path id="kity_path_156" fill="white" stroke="gray" d="M606.5,331.5A6,6,0,1,1,594.5,331.5A6,6,0,1,1,606.5,331.5"></path><path id="kity_path_157" fill="none" stroke="gray" d="M596,331.5L605,331.5"></path></g><path id="node_outline17" fill="none" stroke="none" d="M611.5,320.5h60a5,5,0,0,1,5,5v12a5,5,0,0,1,-5,5h-60a5,5,0,0,1,-5,-5v-12a5,5,0,0,1,5,-5z" stroke-width="3"></path><g id="node_text17" fill="black"><text id="kity_text_153" text-rendering="inherit" font-size="12" dy=".8em" y="325.5" x="616.5">汇编阶段</text></g></g><g id="minder_node18"><g id="node_expander17" style="cursor: pointer;" display="none"><path id="kity_path_164" fill="white" stroke="gray" d="M716.5,305.5A6,6,0,1,1,704.5,305.5A6,6,0,1,1,716.5,305.5"></path><path id="kity_path_165" fill="none" stroke="gray"></path></g><path id="node_outline18" fill="none" stroke="none" d="M721.5,294.5h304a5,5,0,0,1,5,5v12a5,5,0,0,1,-5,5h-304a5,5,0,0,1,-5,-5v-12a5,5,0,0,1,5,-5z" stroke-width="3"></path><g id="node_text18" fill="black"><text id="kity_text_161" text-rendering="inherit" font-size="12" dy=".8em" y="299.5" x="726.5">hello.s -&gt; hello.o, 汇编器将 hello.s 翻译成机器语言指令</text></g></g><g id="minder_node19"><g id="node_expander18" style="cursor: pointer;" display="none"><path id="kity_path_172" fill="white" stroke="gray" d="M716.5,357.5A6,6,0,1,1,704.5,357.5A6,6,0,1,1,716.5,357.5"></path><path id="kity_path_173" fill="none" stroke="gray"></path></g><path id="node_outline19" fill="none" stroke="none" d="M721.5,346.5h216a5,5,0,0,1,5,5v12a5,5,0,0,1,-5,5h-216a5,5,0,0,1,-5,-5v-12a5,5,0,0,1,5,-5z" stroke-width="3"></path><g id="node_text19" fill="black"><text id="kity_text_169" text-rendering="inherit" font-size="12" dy=".8em" y="351.5" x="726.5">.o 文件是一种可重定位目标程序的格式</text></g></g><g id="minder_node20"><g id="node_expander19" style="cursor: pointer;"><path id="kity_path_180" fill="white" stroke="gray" d="M606.5,435.5A6,6,0,1,1,594.5,435.5A6,6,0,1,1,606.5,435.5"></path><path id="kity_path_181" fill="none" stroke="gray" d="M596,435.5L605,435.5"></path></g><path id="node_outline20" fill="none" stroke="none" d="M611.5,424.5h60a5,5,0,0,1,5,5v12a5,5,0,0,1,-5,5h-60a5,5,0,0,1,-5,-5v-12a5,5,0,0,1,5,-5z" stroke-width="3"></path><g id="node_text20" fill="black"><text id="kity_text_177" text-rendering="inherit" font-size="12" dy=".8em" y="429.5" x="616.5">链接阶段</text></g></g><g id="minder_node21"><g id="node_expander20" style="cursor: pointer;" display="none"><path id="kity_path_188" fill="white" stroke="gray" d="M716.5,409.5A6,6,0,1,1,704.5,409.5A6,6,0,1,1,716.5,409.5"></path><path id="kity_path_189" fill="none" stroke="gray"></path></g><path id="node_outline21" fill="none" stroke="none" d="M721.5,398.5h245a5,5,0,0,1,5,5v12a5,5,0,0,1,-5,5h-245a5,5,0,0,1,-5,-5v-12a5,5,0,0,1,5,-5z" stroke-width="3"></path><g id="node_text21" fill="black"><text id="kity_text_185" text-rendering="inherit" font-size="12" dy=".8em" y="403.5" x="726.5">hello.c 中使用了 printf(), printf() 位于 printf.o</text></g></g><g id="minder_node22"><g id="node_expander21" style="cursor: pointer;" display="none"><path id="kity_path_196" fill="white" stroke="gray" d="M716.5,461.5A6,6,0,1,1,704.5,461.5A6,6,0,1,1,716.5,461.5"></path><path id="kity_path_197" fill="none" stroke="gray"></path></g><path id="node_outline22" fill="none" stroke="none" d="M721.5,450.5h178a5,5,0,0,1,5,5v12a5,5,0,0,1,-5,5h-178a5,5,0,0,1,-5,-5v-12a5,5,0,0,1,5,-5z" stroke-width="3"></path><g id="node_text22" fill="black"><text id="kity_text_193" text-rendering="inherit" font-size="12" dy=".8em" y="455.5" x="726.5">链接器将 printf.o 并入到 hello.o</text></g></g><g id="minder_node23"><g id="node_expander22" style="cursor: pointer;" display="none"><path id="kity_path_204" fill="white" stroke="gray" d="M619.5,523.5A6,6,0,1,1,607.5,523.5A6,6,0,1,1,619.5,523.5"></path><path id="kity_path_205" fill="none" stroke="gray"></path></g><path id="node_outline23" fill="none" stroke="none" d="M624.5,512.5h84a5,5,0,0,1,5,5v12a5,5,0,0,1,-5,5h-84a5,5,0,0,1,-5,-5v-12a5,5,0,0,1,5,-5z" stroke-width="3"></path><g id="node_text23" fill="black"><text id="kity_text_201" text-rendering="inherit" font-size="12" dy=".8em" y="517.5" x="629.5">优化程序性能</text></g></g><g id="minder_node24"><g id="node_expander23" style="cursor: pointer;" display="none"><path id="kity_path_212" fill="white" stroke="gray" d="M619.5,575.5A6,6,0,1,1,607.5,575.5A6,6,0,1,1,619.5,575.5"></path><path id="kity_path_213" fill="none" stroke="gray"></path></g><path id="node_outline24" fill="none" stroke="none" d="M624.5,564.5h132a5,5,0,0,1,5,5v12a5,5,0,0,1,-5,5h-132a5,5,0,0,1,-5,-5v-12a5,5,0,0,1,5,-5z" stroke-width="3"></path><g id="node_text24" fill="black"><text id="kity_text_209" text-rendering="inherit" font-size="12" dy=".8em" y="569.5" x="629.5">理解链接时出现的错误</text></g></g><g id="minder_node25"><g id="node_expander24" style="cursor: pointer;" display="none"><path id="kity_path_220" fill="white" stroke="gray" d="M619.5,627.5A6,6,0,1,1,607.5,627.5A6,6,0,1,1,619.5,627.5"></path><path id="kity_path_221" fill="none" stroke="gray"></path></g><path id="node_outline25" fill="none" stroke="none" d="M624.5,616.5h512a5,5,0,0,1,5,5v12a5,5,0,0,1,-5,5h-512a5,5,0,0,1,-5,-5v-12a5,5,0,0,1,5,-5z" stroke-width="3"></path><g id="node_text25" fill="black"><text id="kity_text_217" text-rendering="inherit" font-size="12" dy=".8em" y="621.5" x="629.5">避免安全漏洞(缓冲区溢出错误是因为大多程序员忽视了编译器用来为函数产生代码的堆栈规则)</text></g></g><g id="minder_node26"><g id="node_expander25" style="cursor: pointer;"><path id="kity_path_228" fill="white" stroke="gray" d="M634.5,689.5A6,6,0,1,1,622.5,689.5A6,6,0,1,1,634.5,689.5"></path><path id="kity_path_229" fill="none" stroke="gray" d="M624,689.5L633,689.5"></path></g><path id="node_outline26" fill="none" stroke="none" d="M639.5,678.5h72a5,5,0,0,1,5,5v12a5,5,0,0,1,-5,5h-72a5,5,0,0,1,-5,-5v-12a5,5,0,0,1,5,-5z" stroke-width="3"></path><g id="node_text26" fill="black"><text id="kity_text_225" text-rendering="inherit" font-size="12" dy=".8em" y="683.5" x="644.5">输入 ./hello</text></g></g><g id="minder_node27"><g id="node_expander26" style="cursor: pointer;" display="none"><path id="kity_path_236" fill="white" stroke="gray" d="M756.5,689.5A6,6,0,1,1,744.5,689.5A6,6,0,1,1,756.5,689.5"></path><path id="kity_path_237" fill="none" stroke="gray"></path></g><path id="node_outline27" fill="none" stroke="none" d="M761.5,678.5h243a5,5,0,0,1,5,5v12a5,5,0,0,1,-5,5h-243a5,5,0,0,1,-5,-5v-12a5,5,0,0,1,5,-5z" stroke-width="3"></path><g id="node_text27" fill="black"><text id="kity_text_233" text-rendering="inherit" font-size="12" dy=".8em" y="683.5" x="766.5">shell 程序逐一读取字符 -&gt; 寄存器 -&gt; 存储器</text></g></g><g id="minder_node28"><g id="node_expander27" style="cursor: pointer;"><path id="kity_path_244" fill="white" stroke="gray" d="M634.5,819.5A6,6,0,1,1,622.5,819.5A6,6,0,1,1,634.5,819.5"></path><path id="kity_path_245" fill="none" stroke="gray" d="M624,819.5L633,819.5"></path></g><path id="node_outline28" fill="none" stroke="none" d="M639.5,808.5h60a5,5,0,0,1,5,5v12a5,5,0,0,1,-5,5h-60a5,5,0,0,1,-5,-5v-12a5,5,0,0,1,5,-5z" stroke-width="3"></path><g id="node_text28" fill="black"><text id="kity_text_241" text-rendering="inherit" font-size="12" dy=".8em" y="813.5" x="644.5">输入回车</text></g></g><g id="minder_node29"><g id="node_expander28" style="cursor: pointer;" display="none"><path id="kity_path_252" fill="white" stroke="gray" d="M744.5,741.5A6,6,0,1,1,732.5,741.5A6,6,0,1,1,744.5,741.5"></path><path id="kity_path_253" fill="none" stroke="gray"></path></g><path id="node_outline29" fill="none" stroke="none" d="M749.5,730.5h184a5,5,0,0,1,5,5v12a5,5,0,0,1,-5,5h-184a5,5,0,0,1,-5,-5v-12a5,5,0,0,1,5,-5z" stroke-width="3"></path><g id="node_text29" fill="black"><text id="kity_text_249" text-rendering="inherit" font-size="12" dy=".8em" y="735.5" x="754.5">shell 程序知道我们已经结束输入</text></g></g><g id="minder_node30"><g id="node_expander29" style="cursor: pointer;"><path id="kity_path_260" fill="white" stroke="gray" d="M744.5,793.5A6,6,0,1,1,732.5,793.5A6,6,0,1,1,744.5,793.5"></path><path id="kity_path_261" fill="none" stroke="gray" d="M734,793.5L743,793.5"></path></g><path id="node_outline30" fill="none" stroke="none" d="M749.5,782.5h264a5,5,0,0,1,5,5v12a5,5,0,0,1,-5,5h-264a5,5,0,0,1,-5,-5v-12a5,5,0,0,1,5,-5z" stroke-width="3"></path><g id="node_text30" fill="black"><text id="kity_text_257" text-rendering="inherit" font-size="12" dy=".8em" y="787.5" x="754.5">shell 程序将 hello 可执行文件从磁盘拷贝到主存</text></g></g><g id="minder_node31"><g id="node_expander30" style="cursor: pointer;" display="none"><path id="kity_path_268" fill="white" stroke="gray" d="M1058.5,793.5A6,6,0,1,1,1046.5,793.5A6,6,0,1,1,1058.5,793.5"></path><path id="kity_path_269" fill="none" stroke="gray"></path></g><path id="node_outline31" fill="none" stroke="none" d="M1063.5,782.5h306a5,5,0,0,1,5,5v12a5,5,0,0,1,-5,5h-306a5,5,0,0,1,-5,-5v-12a5,5,0,0,1,5,-5z" stroke-width="3"></path><g id="node_text31" fill="black"><text id="kity_text_265" text-rendering="inherit" font-size="12" dy=".8em" y="787.5" x="1068.5">DMA 技术可以使得数据不通过处理器直接从磁盘到主存</text></g></g><g id="minder_node32"><g id="node_expander31" style="cursor: pointer;" display="none"><path id="kity_path_276" fill="white" stroke="gray" d="M744.5,845.5A6,6,0,1,1,732.5,845.5A6,6,0,1,1,744.5,845.5"></path><path id="kity_path_277" fill="none" stroke="gray"></path></g><path id="node_outline32" fill="none" stroke="none" d="M749.5,834.5h257a5,5,0,0,1,5,5v12a5,5,0,0,1,-5,5h-257a5,5,0,0,1,-5,-5v-12a5,5,0,0,1,5,-5z" stroke-width="3"></path><g id="node_text32" fill="black"><text id="kity_text_273" text-rendering="inherit" font-size="12" dy=".8em" y="839.5" x="754.5">CPU 执行 hello 中 main() 里的机器在语言指令</text></g></g><g id="minder_node33"><g id="node_expander32" style="cursor: pointer;" display="none"><path id="kity_path_284" fill="white" stroke="gray" d="M744.5,897.5A6,6,0,1,1,732.5,897.5A6,6,0,1,1,744.5,897.5"></path><path id="kity_path_285" fill="none" stroke="gray"></path></g><path id="node_outline33" fill="none" stroke="none" d="M749.5,886.5h262a5,5,0,0,1,5,5v12a5,5,0,0,1,-5,5h-262a5,5,0,0,1,-5,-5v-12a5,5,0,0,1,5,-5z" stroke-width="3"></path><g id="node_text33" fill="black"><text id="kity_text_281" text-rendering="inherit" font-size="12" dy=".8em" y="891.5" x="754.5">"hello, world\n" 从存储器 -&gt; 寄存器 -&gt; 显示设备</text></g></g><g id="minder_node34"><g id="node_expander33" style="cursor: pointer;" display="none"><path id="kity_path_293" fill="white" stroke="gray" d="M452.5,959.5A6,6,0,1,1,440.5,959.5A6,6,0,1,1,452.5,959.5"></path><path id="kity_path_294" fill="none" stroke="gray"></path></g><path id="node_outline34" fill="none" stroke="none" d="M457.5,948.5h180a5,5,0,0,1,5,5v12a5,5,0,0,1,-5,5h-180a5,5,0,0,1,-5,-5v-12a5,5,0,0,1,5,-5z" stroke-width="3"></path><g id="node_text34" fill="black"><text id="kity_text_290" text-rendering="inherit" font-size="12" dy=".8em" y="953.5" x="462.5">大量拷贝降低了程序的实际速度</text></g></g><g id="minder_node35"><g id="node_expander34" style="cursor: pointer;" display="none"><path id="kity_path_301" fill="white" stroke="gray" d="M452.5,1011.5A6,6,0,1,1,440.5,1011.5A6,6,0,1,1,452.5,1011.5"></path><path id="kity_path_302" fill="none" stroke="gray"></path></g><path id="node_outline35" fill="none" stroke="none" d="M457.5,1000.5h385a5,5,0,0,1,5,5v12a5,5,0,0,1,-5,5h-385a5,5,0,0,1,-5,-5v-12a5,5,0,0,1,5,-5z" stroke-width="3"></path><g id="node_text35" fill="black"><text id="kity_text_298" text-rendering="inherit" font-size="12" dy=".8em" y="1005.5" x="462.5">位于处理器芯片上的 L1 cache, 容量为几万B, 访问速度与寄存器差不多</text></g></g><g id="minder_node36"><g id="node_expander35" style="cursor: pointer;" display="none"><path id="kity_path_309" fill="white" stroke="gray" d="M452.5,1063.5A6,6,0,1,1,440.5,1063.5A6,6,0,1,1,452.5,1063.5"></path><path id="kity_path_310" fill="none" stroke="gray"></path></g><path id="node_outline36" fill="none" stroke="none" d="M457.5,1052.5h521a5,5,0,0,1,5,5v12a5,5,0,0,1,-5,5h-521a5,5,0,0,1,-5,-5v-12a5,5,0,0,1,5,-5z" stroke-width="3"></path><g id="node_text36" fill="black"><text id="kity_text_306" text-rendering="inherit" font-size="12" dy=".8em" y="1057.5" x="462.5">L2 cache 通过一条特殊的总线连接到处理器, 进程访问 L2 的速度比 L1 慢 5 倍, 比主存快 5-10 倍</text></g></g><g id="minder_node37"><g id="node_expander36" style="cursor: pointer;" display="none"><path id="kity_path_317" fill="white" stroke="gray" d="M452.5,1115.5A6,6,0,1,1,440.5,1115.5A6,6,0,1,1,452.5,1115.5"></path><path id="kity_path_318" fill="none" stroke="gray"></path></g><path id="node_outline37" fill="none" stroke="none" d="M457.5,1104.5h309a5,5,0,0,1,5,5v12a5,5,0,0,1,-5,5h-309a5,5,0,0,1,-5,-5v-12a5,5,0,0,1,5,-5z" stroke-width="3"></path><g id="node_text37" fill="black"><text id="kity_text_314" text-rendering="inherit" font-size="12" dy=".8em" y="1109.5" x="462.5">cache 使用静态随机访问存储器(SRAM) 的硬件技术实现</text></g></g><g id="minder_node38"><g id="node_expander37" style="cursor: pointer;" display="none"><path id="kity_path_325" fill="white" stroke="gray" d="M550.5,1177.5A6,6,0,1,1,538.5,1177.5A6,6,0,1,1,550.5,1177.5"></path><path id="kity_path_326" fill="none" stroke="gray"></path></g><path id="node_outline38" fill="none" stroke="none" d="M555.5,1166.5h236a5,5,0,0,1,5,5v12a5,5,0,0,1,-5,5h-236a5,5,0,0,1,-5,-5v-12a5,5,0,0,1,5,-5z" stroke-width="3"></path><g id="node_text38" fill="black"><text id="kity_text_322" text-rendering="inherit" font-size="12" dy=".8em" y="1171.5" x="560.5">从上到下, 设备越慢, 容量越大, 造价越便宜</text></g></g><g id="minder_node39"><g id="node_expander38" style="cursor: pointer;" display="none"><path id="kity_path_333" fill="white" stroke="gray" d="M550.5,1229.5A6,6,0,1,1,538.5,1229.5A6,6,0,1,1,550.5,1229.5"></path><path id="kity_path_334" fill="none" stroke="gray"></path></g><path id="node_outline39" fill="none" stroke="none" d="M555.5,1218.5h319a5,5,0,0,1,5,5v12a5,5,0,0,1,-5,5h-319a5,5,0,0,1,-5,-5v-12a5,5,0,0,1,5,-5z" stroke-width="3"></path><g id="node_text39" fill="black"><text id="kity_text_330" text-rendering="inherit" font-size="12" dy=".8em" y="1223.5" x="560.5">从上到下的顺序: 寄存器, L1, L2, 主存, 本地磁盘, 远程磁盘</text></g></g><g id="minder_node40"><g id="node_expander39" style="cursor: pointer;"><path id="kity_path_341" fill="white" stroke="gray" d="M508.5,1291.5A6,6,0,1,1,496.5,1291.5A6,6,0,1,1,508.5,1291.5"></path><path id="kity_path_342" fill="none" stroke="gray" d="M498,1291.5L507,1291.5"></path></g><path id="node_outline40" fill="none" stroke="none" d="M513.5,1280.5h36a5,5,0,0,1,5,5v12a5,5,0,0,1,-5,5h-36a5,5,0,0,1,-5,-5v-12a5,5,0,0,1,5,-5z" stroke-width="3"></path><g id="node_text40" fill="black"><text id="kity_text_338" text-rendering="inherit" font-size="12" dy=".8em" y="1285.5" x="518.5">文件</text></g></g><g id="minder_node41"><g id="node_expander40" style="cursor: pointer;"><path id="kity_path_349" fill="white" stroke="gray" d="M508.5,1447.5A6,6,0,1,1,496.5,1447.5A6,6,0,1,1,508.5,1447.5"></path><path id="kity_path_350" fill="none" stroke="gray" d="M498,1447.5L507,1447.5"></path></g><path id="node_outline41" fill="none" stroke="none" d="M513.5,1436.5h72a5,5,0,0,1,5,5v12a5,5,0,0,1,-5,5h-72a5,5,0,0,1,-5,-5v-12a5,5,0,0,1,5,-5z" stroke-width="3"></path><g id="node_text41" fill="black"><text id="kity_text_346" text-rendering="inherit" font-size="12" dy=".8em" y="1441.5" x="518.5">虚拟存储器</text></g></g><g id="minder_node42"><g id="node_expander41" style="cursor: pointer;"><path id="kity_path_357" fill="white" stroke="gray" d="M508.5,1759.5A6,6,0,1,1,496.5,1759.5A6,6,0,1,1,508.5,1759.5"></path><path id="kity_path_358" fill="none" stroke="gray" d="M498,1759.5L507,1759.5"></path></g><path id="node_outline42" fill="none" stroke="none" d="M513.5,1748.5h36a5,5,0,0,1,5,5v12a5,5,0,0,1,-5,5h-36a5,5,0,0,1,-5,-5v-12a5,5,0,0,1,5,-5z" stroke-width="3"></path><g id="node_text42" fill="black"><text id="kity_text_354" text-rendering="inherit" font-size="12" dy=".8em" y="1753.5" x="518.5">进程</text></g></g><g id="minder_node43"><g id="node_expander42" style="cursor: pointer;" display="none"><path id="kity_path_365" fill="white" stroke="gray" d="M594.5,1291.5A6,6,0,1,1,582.5,1291.5A6,6,0,1,1,594.5,1291.5"></path><path id="kity_path_366" fill="none" stroke="gray"></path></g><path id="node_outline43" fill="none" stroke="none" d="M599.5,1280.5h131a5,5,0,0,1,5,5v12a5,5,0,0,1,-5,5h-131a5,5,0,0,1,-5,-5v-12a5,5,0,0,1,5,-5z" stroke-width="3"></path><g id="node_text43" fill="black"><text id="kity_text_362" text-rendering="inherit" font-size="12" dy=".8em" y="1285.5" x="604.5">对 I/O 设备的抽象表示</text></g></g><g id="minder_node44"><g id="node_expander43" style="cursor: pointer;" display="none"><path id="kity_path_373" fill="white" stroke="gray" d="M630.5,1343.5A6,6,0,1,1,618.5,1343.5A6,6,0,1,1,630.5,1343.5"></path><path id="kity_path_374" fill="none" stroke="gray" d="M620,1343.5L629,1343.5"></path></g><path id="node_outline44" fill="none" stroke="none" d="M635.5,1332.5h191a5,5,0,0,1,5,5v12a5,5,0,0,1,-5,5h-191a5,5,0,0,1,-5,-5v-12a5,5,0,0,1,5,-5z" stroke-width="3"></path><g id="node_text44" fill="black"><text id="kity_text_370" text-rendering="inherit" font-size="12" dy=".8em" y="1337.5" x="640.5">对主存和磁盘 I/O 设备的抽象表示</text></g></g><g id="minder_node45"><g id="node_expander44" style="cursor: pointer;" display="none"><path id="kity_path_381" fill="white" stroke="gray" d="M594.5,1707.5A6,6,0,1,1,582.5,1707.5A6,6,0,1,1,594.5,1707.5"></path><path id="kity_path_382" fill="none" stroke="gray"></path></g><path id="node_outline45" fill="none" stroke="none" d="M599.5,1696.5h209a5,5,0,0,1,5,5v12a5,5,0,0,1,-5,5h-209a5,5,0,0,1,-5,-5v-12a5,5,0,0,1,5,-5z" stroke-width="3"></path><g id="node_text45" fill="black"><text id="kity_text_378" text-rendering="inherit" font-size="12" dy=".8em" y="1701.5" x="604.5">对处理器, 主存和 I/O 设备的抽象表示</text></g></g><g id="minder_node46"><g id="node_expander45" style="cursor: pointer;" display="none"><path id="kity_path_389" fill="white" stroke="gray" d="M594.5,1759.5A6,6,0,1,1,582.5,1759.5A6,6,0,1,1,594.5,1759.5"></path><path id="kity_path_390" fill="none" stroke="gray"></path></g><path id="node_outline46" fill="none" stroke="none" d="M599.5,1748.5h501a5,5,0,0,1,5,5v12a5,5,0,0,1,-5,5h-501a5,5,0,0,1,-5,-5v-12a5,5,0,0,1,5,-5z" stroke-width="3"></path><g id="node_text46" fill="black"><text id="kity_text_386" text-rendering="inherit" font-size="12" dy=".8em" y="1753.5" x="604.5">系统上有多个进程, 每个进程都好像在独占使用硬件, 实际上多个进程的指令在交错执行(并发)</text></g></g><g id="minder_node47"><g id="node_expander46" style="cursor: pointer;" display="none"><path id="kity_path_397" fill="white" stroke="gray" d="M594.5,1811.5A6,6,0,1,1,582.5,1811.5A6,6,0,1,1,594.5,1811.5"></path><path id="kity_path_398" fill="none" stroke="gray"></path></g><path id="node_outline47" fill="none" stroke="none" d="M599.5,1800.5h223a5,5,0,0,1,5,5v12a5,5,0,0,1,-5,5h-223a5,5,0,0,1,-5,-5v-12a5,5,0,0,1,5,-5z" stroke-width="3"></path><g id="node_text47" fill="black"><text id="kity_text_394" text-rendering="inherit" font-size="12" dy=".8em" y="1805.5" x="604.5">多线程比多进程更容易共享数据, 更高效</text></g></g><g id="minder_node49"><g id="node_expander48" style="cursor: pointer;" display="none"><path id="kity_path_413" fill="white" stroke="gray" d="M630.5,1395.5A6,6,0,1,1,618.5,1395.5A6,6,0,1,1,630.5,1395.5"></path><path id="kity_path_414" fill="none" stroke="gray"></path></g><path id="node_outline49" fill="none" stroke="none" d="M635.5,1384.5h259a5,5,0,0,1,5,5v12a5,5,0,0,1,-5,5h-259a5,5,0,0,1,-5,-5v-12a5,5,0,0,1,5,-5z" stroke-width="3"></path><g id="node_text49" fill="black"><text id="kity_text_410" text-rendering="inherit" font-size="12" dy=".8em" y="1389.5" x="640.5">为进程提供假象, 好像每个进程都独立占用主存</text></g></g><g id="minder_node50"><g id="node_expander49" style="cursor: pointer;"><path id="kity_path_421" fill="white" stroke="gray" d="M630.5,1551.5A6,6,0,1,1,618.5,1551.5A6,6,0,1,1,630.5,1551.5"></path><path id="kity_path_422" fill="none" stroke="gray" d="M620,1551.5L629,1551.5"></path></g><path id="node_outline50" fill="none" stroke="none" d="M635.5,1540.5h294a5,5,0,0,1,5,5v12a5,5,0,0,1,-5,5h-294a5,5,0,0,1,-5,-5v-12a5,5,0,0,1,5,-5z" stroke-width="3"></path><g id="node_text50" fill="black"><text id="kity_text_418" text-rendering="inherit" font-size="12" dy=".8em" y="1545.5" x="640.5">每个进程看到的存储器是一致的, 称之为虚拟地址空间</text></g></g><g id="minder_node51"><g id="node_expander50" style="cursor: pointer;" display="none"><path id="kity_path_429" fill="white" stroke="gray" d="M974.5,1447.5A6,6,0,1,1,962.5,1447.5A6,6,0,1,1,974.5,1447.5"></path><path id="kity_path_430" fill="none" stroke="gray"></path></g><path id="node_outline51" fill="none" stroke="none" d="M979.5,1436.5h108a5,5,0,0,1,5,5v12a5,5,0,0,1,-5,5h-108a5,5,0,0,1,-5,-5v-12a5,5,0,0,1,5,-5z" stroke-width="3"></path><g id="node_text51" fill="black"><text id="kity_text_426" text-rendering="inherit" font-size="12" dy=".8em" y="1441.5" x="984.5">程序代码和数据区</text></g></g><g id="minder_node52"><g id="node_expander51" style="cursor: pointer;" display="none"><path id="kity_path_437" fill="white" stroke="gray" d="M974.5,1499.5A6,6,0,1,1,962.5,1499.5A6,6,0,1,1,974.5,1499.5"></path><path id="kity_path_438" fill="none" stroke="gray"></path></g><path id="node_outline52" fill="none" stroke="none" d="M979.5,1488.5h24a5,5,0,0,1,5,5v12a5,5,0,0,1,-5,5h-24a5,5,0,0,1,-5,-5v-12a5,5,0,0,1,5,-5z" stroke-width="3"></path><g id="node_text52" fill="black"><text id="kity_text_434" text-rendering="inherit" font-size="12" dy=".8em" y="1493.5" x="984.5">堆</text></g></g><g id="minder_node53"><g id="node_expander52" style="cursor: pointer;" display="none"><path id="kity_path_445" fill="white" stroke="gray" d="M974.5,1551.5A6,6,0,1,1,962.5,1551.5A6,6,0,1,1,974.5,1551.5"></path><path id="kity_path_446" fill="none" stroke="gray"></path></g><path id="node_outline53" fill="none" stroke="none" d="M979.5,1540.5h60a5,5,0,0,1,5,5v12a5,5,0,0,1,-5,5h-60a5,5,0,0,1,-5,-5v-12a5,5,0,0,1,5,-5z" stroke-width="3"></path><g id="node_text53" fill="black"><text id="kity_text_442" text-rendering="inherit" font-size="12" dy=".8em" y="1545.5" x="984.5">共享库区</text></g></g><g id="minder_node54"><g id="node_expander53" style="cursor: pointer;" display="none"><path id="kity_path_453" fill="white" stroke="gray" d="M974.5,1603.5A6,6,0,1,1,962.5,1603.5A6,6,0,1,1,974.5,1603.5"></path><path id="kity_path_454" fill="none" stroke="gray"></path></g><path id="node_outline54" fill="none" stroke="none" d="M979.5,1592.5h24a5,5,0,0,1,5,5v12a5,5,0,0,1,-5,5h-24a5,5,0,0,1,-5,-5v-12a5,5,0,0,1,5,-5z" stroke-width="3"></path><g id="node_text54" fill="black"><text id="kity_text_450" text-rendering="inherit" font-size="12" dy=".8em" y="1597.5" x="984.5">栈</text></g></g><g id="minder_node55"><g id="node_expander54" style="cursor: pointer;" display="none"><path id="kity_path_461" fill="white" stroke="gray" d="M974.5,1655.5A6,6,0,1,1,962.5,1655.5A6,6,0,1,1,974.5,1655.5"></path><path id="kity_path_462" fill="none" stroke="gray"></path></g><path id="node_outline55" fill="none" stroke="none" d="M979.5,1644.5h95a5,5,0,0,1,5,5v12a5,5,0,0,1,-5,5h-95a5,5,0,0,1,-5,-5v-12a5,5,0,0,1,5,-5z" stroke-width="3"></path><g id="node_text55" fill="black"><text id="kity_text_458" text-rendering="inherit" font-size="12" dy=".8em" y="1649.5" x="984.5">内核虚拟存储器</text></g></g><g id="minder_node57"><g id="node_expander56" style="cursor: pointer;" display="none"><path id="kity_path_479" fill="white" stroke="gray" d="M578.5,1873.5A6,6,0,1,1,566.5,1873.5A6,6,0,1,1,578.5,1873.5"></path><path id="kity_path_480" fill="none" stroke="gray"></path></g><path id="node_outline57" fill="none" stroke="none" d="M583.5,1862.5h178a5,5,0,0,1,5,5v12a5,5,0,0,1,-5,5h-178a5,5,0,0,1,-5,-5v-12a5,5,0,0,1,5,-5z" stroke-width="3"></path><g id="node_text57" fill="black"><text id="kity_text_475" text-rendering="inherit" font-size="12" dy=".8em" y="1867.5" x="588.5">网络也可以看成是一个 I/O 设备</text></g><image id="kity_image_476" xlink:href="http://kityminder-img.gz.bcebos.com/d1a51052eacc9def985142a92fd9b8ecffb981b7" x="572.5" y="1816.5" width="200" height="46" display="none"></image></g><g id="minder_node59"><g id="node_expander58" style="cursor: pointer;" display="none"><path id="kity_path_496" fill="white" stroke="gray" d="M578.5,1925.5A6,6,0,1,1,566.5,1925.5A6,6,0,1,1,578.5,1925.5"></path><path id="kity_path_497" fill="none" stroke="gray"></path></g><path id="node_outline59" fill="none" stroke="none" d="M583.5,1914.5h221a5,5,0,0,1,5,5v12a5,5,0,0,1,-5,5h-221a5,5,0,0,1,-5,-5v-12a5,5,0,0,1,5,-5z" stroke-width="3"></path><g id="node_text59" fill="black"><text id="kity_text_493" text-rendering="inherit" font-size="12" dy=".8em" y="1919.5" x="588.5">图1: 利用 telnet 跨越远程网络执行 hello</text></g></g></g></g></svg>